$MeshFormat
4.1 0 8
$EndMeshFormat
$Entities
2 3 1 1
1 6.123233995736766e-16 -1.499759782661858e-31 10 0 
2 6.123233995736766e-16 -1.499759782661858e-31 -10 0 
1 -1.000000006164824e-07 -1.000000006157888e-07 9.999999900000001 1.000000006164824e-07 1.000000006157888e-07 10.0000001 0 2 1 -1 
2 -1.000000020567882e-07 -1.000000024492936e-07 -10.0000001 10.0000001 1e-07 10.0000001 0 2 2 -1 
3 -1.000000006164824e-07 -1.000000006157888e-07 -10.0000001 1.000000006164824e-07 1.000000006157888e-07 -9.999999900000001 0 2 2 -2 
1 -10.0000001 -10.0000001 -10.0000001 10.0000001 10.0000001 10.0000001 0 4 -1 -2 3 2 
1 -10.0000001 -10.0000001 -10.0000001 10.0000001 10.0000001 10.0000001 0 1 1 
$EndEntities
$Nodes
7 162 1 162
0 1 0 1
1
6.123233995736766e-16 -1.499759782661858e-31 10
0 2 0 1
2
6.123233995736766e-16 -1.499759782661858e-31 -10
1 1 0 0
1 2 0 9
3
4
5
6
7
8
9
10
11
3.090169943749472 -7.568733460868295e-16 -9.510565162951536
5.877852522924737 -1.439658655611995e-15 -8.090169943749469
8.090169943749483 -1.981520145234185e-15 -5.877852522924719
9.510565162951544 -2.329416636978187e-15 -3.090169943749451
10 -2.449293598294707e-15 2.419605899270905e-14
9.510565162951531 -2.329416636978184e-15 3.090169943749489
8.090169943749469 -1.981520145234182e-15 5.877852522924735
5.877852522924734 -1.439658655611994e-15 8.090169943749473
3.090169943749477 -7.568733460868307e-16 9.510565162951535
1 3 0 0
2 1 0 151
12
13
14
15
16
17
18
19
20
21
22
23
24
25
26
27
28
29
30
31
32
33
34
35
36
37
38
39
40
41
42
43
44
45
46
47
48
49
50
51
52
53
54
55
56
57
58
59
60
61
62
63
64
65
66
67
68
69
70
71
72
73
74
75
76
77
78
79
80
81
82
83
84
85
86
87
88
89
90
91
92
93
94
95
96
97
98
99
100
101
102
103
104
105
106
107
108
109
110
111
112
113
114
115
116
117
118
119
120
121
122
123
124
125
126
127
128
129
130
131
132
133
134
135
136
137
138
139
140
141
142
143
144
145
146
147
148
149
150
151
152
153
154
155
156
157
158
159
160
161
162
8.521028438990575 2.604100028135897 4.53990499739548
3.889117958964871 3.160003623209328 -8.653851085069631
8.579604780797959 2.698172279020997 -4.37152698242061
4.845904470372625 2.867344801849976 8.264111788409359
6.684312771311046 3.123682500842751 -6.750005215495527
9.517977425774882 2.70622338527515 1.443766155383097
8.080986882643474 5.184198656699401 2.796736542905002
4.797253184958235 5.255403254503368 -7.026172394124947
9.51682756865293 -2.799998253004253 -1.2609531362032
6.808812905081736 -2.698172279030527 6.808812905071164
4.371526982924663 -2.698172279354425 -8.579604780436272
1.506325540503648 -2.698172279019946 9.510565162951922
8.572514001024185 5.142758975403156 -0.2530490528625062
6.756310327397227 7.314144871385813 0.9249624642579851
6.023670495741631 6.924392560993946 3.970916949519782
6.887534475184018 6.915780945949735 -2.175739589378792
4.707514830058204 8.777066357883852 -0.8957735618366951
4.538620186839631 8.094107705173371 -3.726438951152273
6.64779697718919 5.803451221336664 -4.703907872358924
1.396663028395337 -2.630486925467601 -9.546196673024163
4.278242477509452 -2.630486925030734 8.647379940818846
4.931077080191998 -5.19498642595689 6.978294552634534
7.167144960388376 -5.064666913626114 4.793869227544741
4.985917602411501 -7.304111183322659 4.668038719165045
2.501075653655083 -7.120882946485642 6.560308425458652
6.917118240406971 -6.863513068501577 2.246255463373935
4.437295718252738 -8.747553544958658 1.946975522921933
2.126768084680263 9.424057887695097 -2.581470597035197
6.084695276380654 -7.914976098633434 -0.5741400104960827
2.533321381359539 -5.194986426219431 -8.160539124968549
3.339916290517204 -9.38138320363618 -0.9135690224995459
1.498452020117303 -9.758818957578757 1.587480424007759
0.2836282610584146 -9.913702868289167 -1.279863449280485
-0.5401287115419381 -4.930994136008491 -8.682946378137892
1.375563183746627 5.006767508366505 -8.546350393278191
-1.698273768276606 -2.176810112045536 -9.611314371306346
2.124235263940154 9.757568407207069 0.5267668574498655
5.334972857969081 -5.064666913900928 -6.774010160604313
0.641359216176424 -7.609413545927535 -6.456429651353765
-2.536354242645938 -6.848338311693674 -6.831337315958025
-0.584824109196725 9.925991668531175 -1.064269776678801
-0.6180437338628563 9.767680034734267 2.051937787089668
-1.640298713076606 -9.78966202142171 1.213234370685487
-3.27274822168665 9.439893745691611 0.4213373321927278
-3.203214232407539 8.856889559470382 3.36079245307507
-5.713735879507781 8.015142808422661 1.763719949372902
-5.455068943783577 6.975797116864567 4.645479243620827
-7.652544975674124 5.792635038433847 2.807834522687051
-7.58109193202469 6.520734120688007 -0.08409307632219309
-9.14680580145663 3.976096306919501 0.7256733345937765
-8.78764808397592 3.016464070710296 3.698403123282831
-9.830197120800591 1.025673052764278 1.52158448830059
-9.005860401599664 -0.03654910705395303 4.346624275190197
-9.711490048949516 1.860993251306056 -1.491195878396884
-9.908261469751396 -1.170120917004095 -0.6761447231395072
-9.295689795525668 -0.3452227562579247 -3.670282342534655
-9.023940214313845 -3.336469366507655 -2.726990131050239
-9.143006477800007 -4.040672084514985 0.2800029505709525
-8.62384553782239 2.640780647917516 -4.319208921708371
-7.516949977940957 1.879488863921502 6.321628321843077
-7.320677172245138 -1.219755620370129 6.702229626500752
-3.124034505089659 9.112974234113146 -2.682183628948453
-2.735219616353367 7.342759134080371 6.213087956016317
-7.799547815792613 -5.941894343250469 -1.964928874746549
-7.431824132671255 -6.572887530026986 1.251055385928572
-7.971027130287282 -2.651925370664808 -5.424944084195561
-2.850115357979979 -9.442642088764206 -1.647225798032985
-5.601805741629402 0.654594381637953 8.25780107707711
-4.942682503566604 -2.405965138019428 8.353515512858747
-6.788180220589733 -4.287658230007782 5.961257937335112
-3.831224548921641 -5.234630769454176 7.610542632639524
-5.125642886748046 -6.806128021450989 5.234921809649959
-2.82061413764168 -0.463173357152689 9.582776545853491
-3.366815949052337 2.8613354662071 8.970914653201881
-2.236008713871744 -7.524208967834982 6.19568756796542
-1.580911629912236 2.004733621182065 9.668596667899147
-0.8646656001063765 4.438348512142671 8.919272161154947
-4.759375400070312 5.205235712210384 7.088996189978889
2.019408067413384 9.129623324002537 3.545697254292107
4.749887840243403 -8.115272368972862 -3.403075062718051
7.036839712405832 -6.470208440809763 -2.935862666131082
1.79982434663307 8.195424200575264 -5.440188828881967
8.75989048912237 -4.409601099368824 1.954414685533417
-0.6114653013787485 -5.998746846047318 7.977540126019244
-4.67359911315986 -8.792817890966591 0.918599404402807
-8.414110450215833 -4.372089449532242 3.176094957153762
-1.038972844099973 -9.069405639150697 -4.082452299998661
-3.892002930783111 -8.073557889855627 -4.435084687570875
-5.414983191087297 -5.834246892854694 -6.053058750206986
1.59269840977238 2.681307598933273 9.501257881744461
1.687575237266783 5.402940242907217 8.243805344022727
4.452393850284216 5.496726401795501 7.0683935845251
-0.3849110705361233 -9.152230318584493 4.011050194570188
-3.897716704793619 -4.325015144588605 -8.130316629028171
-4.568626649045533 -1.099965180669645 -8.827101854116412
3.626744331877764 -7.328077742698366 -5.757256477538703
-5.621184118668891 -8.049831511695198 -1.898025747281542
-3.382379561788087 -8.649010056220447 3.708656569082096
9.510232634652215 2.675891227823645 -1.5476050438185
7.25875172668705 2.226187936964098 6.508041997377806
8.687606039729509 -2.492857390725898 -4.27915451087696
6.913228371989847 -2.516557788624356 -6.773050300509268
6.725255598835352 4.650476291916219 5.757083236210756
-7.926583683361859 0.3025922737244868 -6.089146822547785
-6.742420071794005 3.320457799384027 -6.596539363786068
-7.194210136759508 5.346298465244656 -4.434008708682178
-4.862102253230535 5.830886552027073 -6.508511634507569
-4.091144853539113 3.48705920734143 -8.432256629862245
-1.970402960362738 6.065074936643203 -7.702751338755276
-2.822158683366983 7.999450814114106 -5.295678147174873
-2.309293155703117 0.8998233666684717 -9.688007175359655
-1.177762576985288 4.060798455287114 -9.062162612632305
-5.302344459056538 7.50337932215949 -3.947713513579955
-9.542551643944819 -1.911502775812548 2.299100967923537
8.172393547286589 -5.731115750546849 -0.6052238941931547
8.730778441156382 -2.521110077209236 4.173429260216707
-8.568720472639383 4.735253831844622 -2.03823467975882
-6.961950017674789 4.617813168031558 5.496094385702667
-2.448637030558391 -4.095536270284424 8.788103285201133
2.035935337485914 -9.064778736701671 -3.699290980203824
2.34558266565918 -8.762583104137574 4.208964160175505
-5.277945696172513 3.178264685427728 7.876669525733387
-5.533632288230268 8.243660398414859 -1.192047370812931
-0.4519537846544205 8.721970751480919 4.870622546127744
1.98925527167267 7.584925713401851 6.205784832420305
-0.5695862979316769 9.124330494456212 -4.05242698603503
4.438603559347012 8.699175419290938 2.150150103447752
-7.546269284400476 -5.178619309235313 -4.029357509247482
-0.1208699436825661 6.694241208005193 7.42782102004076
2.603925850690623 -5.047865496279098 8.230347750586247
-5.934975178208616 0.9841718103946093 -7.987958154727165
-5.732990379389007 -7.605921658214212 3.046765012097429
-6.083357127807862 -2.687053409825567 -7.468099492393902
0.1224928306508963 6.722426849790237 -7.402295100552154
8.354726456839098 4.837466440536165 -2.607194712344894
-1.083094339892462 -2.147683890951572 9.706408221141331
9.67106041278068 -2.030848651103656 1.531745490823077
0.973233068023827 1.395280265608917 -9.854238193574744
1.545160746974046 3.372872127314292 -9.286345453341534
0.2961384090154949 -8.052706473703244 5.921673791343427
-8.436641033388526 -2.394513637789688 4.805142298848618
-6.997912147982101 6.726710487813996 -2.404286085776346
5.77200430658068 -6.486420687961815 -4.960878243173789
7.278990634207514 -4.657185606942252 -5.032585574991169
3.801271463622803 7.966024328840871 4.700296974890236
-6.931789580430937 -5.969290085181797 4.039538227518015
-6.030494862308823 -6.907250660510797 -3.990365901585973
-2.474091427709974 5.668670877351584 7.857801352261207
8.439732530850376 -4.519535317202076 -2.888722091906565
-0.7104847875782532 7.950132874139586 -6.024167880308858
3.366652944219244 7.076482842766324 -6.212007608592712
3 1 0 0
$EndNodes
$Elements
4 332 1 332
0 1 15 1
1 1 
0 2 15 1
2 2 
1 2 1 10
3 2 3 
4 3 4 
5 4 5 
6 5 6 
7 6 7 
8 7 8 
9 8 9 
10 9 10 
11 10 11 
12 11 1 
2 1 2 320
13 76 108 96 
14 100 139 77 
15 77 144 100 
16 50 98 51 
17 50 131 98 
18 94 126 20 
19 87 147 1 
20 145 162 46 
21 142 144 115 
22 98 99 51 
23 75 108 76 
24 107 131 50 
25 46 162 19 
26 5 16 14 
27 20 148 94 
28 111 114 15 
29 15 114 103 
30 23 130 95 
31 36 141 95 
32 23 147 130 
33 106 144 142 
34 16 30 14 
35 95 151 36 
36 95 141 23 
37 4 16 5 
38 115 144 77 
39 27 30 29 
40 93 162 145 
41 13 16 4 
42 84 147 87 
43 26 156 103 
44 122 142 119 
45 103 114 26 
46 3 13 4 
47 46 123 120 
48 103 136 102 
49 45 105 47 
50 96 143 76 
51 51 105 45 
52 126 160 20 
53 30 162 29 
54 26 114 18 
55 78 99 98 
56 106 142 122 
57 85 159 89 
58 18 114 12 
59 105 106 47 
60 99 100 51 
61 91 131 107 
62 54 109 96 
63 124 134 73 
64 74 140 135 
65 17 18 12 
66 103 156 136 
67 104 109 54 
68 8 17 12 
69 89 133 85 
70 106 122 47 
71 121 124 73 
72 100 105 51 
73 81 152 97 
74 17 24 18 
75 24 25 18 
76 13 19 16 
77 25 26 18 
78 24 27 25 
79 19 30 16 
80 13 46 19 
81 27 28 25 
82 27 29 28 
83 29 39 28 
84 29 93 39 
85 39 48 28 
86 39 52 48 
87 52 53 48 
88 53 90 48 
89 52 55 53 
90 52 73 55 
91 55 56 53 
92 55 57 56 
93 57 58 56 
94 22 31 3 
95 4 22 3 
96 38 43 42 
97 72 81 80 
98 57 59 58 
99 22 41 31 
100 32 33 21 
101 70 115 67 
102 43 44 42 
103 41 45 31 
104 67 77 68 
105 81 83 82 
106 45 47 31 
107 58 74 56 
108 57 60 59 
109 72 80 79 
110 33 34 21 
111 33 35 34 
112 35 38 37 
113 35 37 34 
114 41 50 45 
115 43 54 44 
116 38 40 37 
117 50 51 45 
118 10 32 21 
119 10 21 9 
120 54 78 44 
121 78 98 44 
122 118 119 116 
123 37 94 34 
124 43 104 54 
125 38 42 40 
126 118 120 119 
127 118 121 120 
128 42 91 40 
129 120 123 119 
130 54 96 78 
131 91 92 40 
132 96 108 78 
133 10 15 11 
134 7 17 8 
135 5 14 6 
136 68 69 66 
137 67 68 66 
138 81 82 80 
139 7 20 6 
140 65 67 66 
141 1 23 11 
142 20 112 6 
143 65 66 63 
144 86 95 82 
145 83 86 82 
146 61 65 63 
147 63 64 62 
148 60 61 59 
149 33 36 35 
150 61 63 62 
151 76 97 69 
152 75 76 69 
153 61 62 59 
154 58 89 74 
155 22 49 41 
156 72 79 71 
157 84 85 79 
158 80 130 84 
159 117 118 116 
160 65 70 67 
161 68 75 69 
162 64 72 71 
163 70 116 115 
164 80 84 79 
165 64 71 62 
166 70 117 116 
167 71 133 129 
168 78 108 99 
169 11 101 1 
170 120 145 46 
171 74 135 56 
172 86 109 104 
173 97 157 81 
174 39 137 52 
175 100 144 105 
176 3 31 2 
177 11 32 10 
178 6 112 5 
179 119 123 122 
180 7 110 17 
181 17 110 24 
182 27 146 30 
183 8 12 9 
184 19 162 30 
185 71 129 62 
186 30 146 14 
187 135 140 136 
188 67 115 77 
189 82 130 80 
190 22 113 49 
191 62 129 59 
192 56 135 53 
193 15 101 11 
194 52 137 73 
195 93 137 39 
196 98 131 44 
197 6 110 7 
198 9 127 8 
199 49 107 41 
200 60 128 61 
201 86 151 95 
202 48 138 28 
203 66 125 63 
204 87 101 88 
205 38 132 43 
206 4 113 22 
207 83 109 86 
208 23 32 11 
209 44 131 42 
210 73 137 121 
211 41 107 50 
212 14 110 6 
213 61 128 65 
214 90 138 48 
215 69 125 66 
216 63 125 64 
217 28 138 25 
218 43 132 104 
219 35 132 38 
220 121 161 120 
221 21 127 9 
222 92 126 40 
223 55 134 57 
224 10 111 15 
225 40 126 37 
226 57 134 60 
227 73 134 55 
228 37 126 94 
229 34 127 21 
230 5 113 4 
231 94 127 34 
232 32 141 33 
233 77 139 68 
234 116 142 115 
235 31 47 2 
236 33 141 36 
237 36 132 35 
238 123 149 122 
239 97 125 69 
240 25 138 26 
241 68 139 75 
242 119 142 116 
243 65 128 70 
244 136 140 102 
245 59 129 58 
246 42 131 91 
247 7 148 20 
248 127 148 8 
249 70 128 117 
250 112 113 5 
251 122 149 2 
252 118 124 121 
253 135 136 90 
254 53 135 90 
255 79 133 71 
256 94 148 127 
257 58 129 89 
258 95 130 82 
259 104 151 86 
260 9 111 10 
261 129 133 89 
262 75 158 108 
263 76 157 97 
264 12 114 111 
265 3 149 13 
266 124 153 134 
267 120 161 145 
268 109 143 96 
269 1 101 87 
270 88 159 85 
271 125 152 64 
272 12 111 9 
273 132 151 104 
274 110 146 24 
275 117 124 118 
276 92 160 126 
277 97 152 125 
278 72 152 81 
279 107 154 91 
280 24 146 27 
281 47 122 2 
282 139 158 75 
283 60 153 128 
284 23 141 32 
285 14 146 110 
286 13 150 46 
287 8 148 7 
288 101 102 88 
289 85 133 79 
290 1 147 23 
291 128 153 117 
292 36 151 132 
293 89 159 74 
294 81 157 83 
295 105 144 106 
296 91 154 92 
297 46 150 123 
298 83 143 109 
299 99 158 100 
300 64 152 72 
301 84 87 85 
302 90 156 138 
303 49 154 107 
304 20 160 112 
305 113 155 49 
306 130 147 84 
307 138 156 26 
308 74 159 140 
309 87 88 85 
310 2 149 3 
311 29 162 93 
312 143 157 76 
313 112 155 113 
314 149 150 13 
315 102 140 88 
316 136 156 90 
317 134 153 60 
318 137 161 121 
319 155 160 92 
320 154 155 92 
321 108 158 99 
322 145 161 93 
323 123 150 149 
324 93 161 137 
325 140 159 88 
326 117 153 124 
327 112 160 155 
328 100 158 139 
329 83 157 143 
330 49 155 154 
331 15 103 101 
332 101 103 102 
$EndElements
