solid Created by Gmsh
facet normal -0.6266 -0.779323 0.00522984
  outer loop
    vertex -7.431824132671255 -6.572887530026986 1.251055385928572
    vertex -5.621184118668891 -8.049831511695198 -1.898025747281542
    vertex -4.67359911315986 -8.792817890966591 0.918599404402807
  endloop
endfacet
facet normal -0.686463 -0.436591 -0.581513
  outer loop
    vertex -5.414983191087297 -5.834246892854694 -6.053058750206986
    vertex -7.546269284400476 -5.178619309235313 -4.029357509247482
    vertex -7.971027130287282 -2.651925370664808 -5.424944084195561
  endloop
endfacet
facet normal -0.670855 -0.417915 -0.612617
  outer loop
    vertex -7.971027130287282 -2.651925370664808 -5.424944084195561
    vertex -6.083357127807862 -2.687053409825567 -7.468099492393902
    vertex -5.414983191087297 -5.834246892854694 -6.053058750206986
  endloop
endfacet
facet normal -0.12384 -0.803738 -0.581953
  outer loop
    vertex 0.641359216176424 -7.609413545927535 -6.456429651353765
    vertex -1.038972844099973 -9.069405639150697 -4.082452299998661
    vertex -2.536354242645938 -6.848338311693674 -6.831337315958025
  endloop
endfacet
facet normal 0.0624175 -0.869254 -0.49041
  outer loop
    vertex 0.641359216176424 -7.609413545927535 -6.456429651353765
    vertex 2.035935337485914 -9.064778736701671 -3.699290980203824
    vertex -1.038972844099973 -9.069405639150697 -4.082452299998661
  endloop
endfacet
facet normal 0.909434 -0.415807 0.00594035
  outer loop
    vertex 8.75989048912237 -4.409601099368824 1.954414685533417
    vertex 8.172393547286589 -5.731115750546849 -0.6052238941931547
    vertex 9.51682756865293 -2.799998253004253 -1.2609531362032
  endloop
endfacet
facet normal -0.227431 -0.0184001 0.97362
  outer loop
    vertex -1.580911629912236 2.004733621182065 9.668596667899147
    vertex -1.083094339892462 -2.147683890951572 9.706408221141331
    vertex 6.123233995736766e-16 -1.499759782661858e-31 10
  endloop
endfacet
facet normal 0.201714 0.641099 -0.740475
  outer loop
    vertex 0.1224928306508963 6.722426849790237 -7.402295100552154
    vertex 3.366652944219244 7.076482842766324 -6.212007608592712
    vertex 1.375563183746627 5.006767508366505 -8.546350393278191
  endloop
endfacet
facet normal -0.674118 -0.076779 -0.734623
  outer loop
    vertex -5.934975178208616 0.9841718103946093 -7.987958154727165
    vertex -6.083357127807862 -2.687053409825567 -7.468099492393902
    vertex -7.926583683361859 0.3025922737244868 -6.089146822547785
  endloop
endfacet
facet normal -0.217404 -0.813728 -0.539058
  outer loop
    vertex -1.038972844099973 -9.069405639150697 -4.082452299998661
    vertex -3.892002930783111 -8.073557889855627 -4.435084687570875
    vertex -2.536354242645938 -6.848338311693674 -6.831337315958025
  endloop
endfacet
facet normal -0.693093 -0.718206 -0.0616659
  outer loop
    vertex -7.799547815792613 -5.941894343250469 -1.964928874746549
    vertex -5.621184118668891 -8.049831511695198 -1.898025747281542
    vertex -7.431824132671255 -6.572887530026986 1.251055385928572
  endloop
endfacet
facet normal 0.202645 -0.819976 -0.535326
  outer loop
    vertex 3.626744331877764 -7.328077742698366 -5.757256477538703
    vertex 2.035935337485914 -9.064778736701671 -3.699290980203824
    vertex 0.641359216176424 -7.609413545927535 -6.456429651353765
  endloop
endfacet
facet normal 0.297125 0.574416 -0.762733
  outer loop
    vertex 1.375563183746627 5.006767508366505 -8.546350393278191
    vertex 3.366652944219244 7.076482842766324 -6.212007608592712
    vertex 4.797253184958235 5.255403254503368 -7.026172394124947
  endloop
endfacet
facet normal 0.784249 0.187862 -0.591321
  outer loop
    vertex 8.090169943749483 -1.981520145234185e-15 -5.877852522924719
    vertex 6.684312771311046 3.123682500842751 -6.750005215495527
    vertex 8.579604780797959 2.698172279020997 -4.37152698242061
  endloop
endfacet
facet normal 0.935532 -0.350385 0.0448342
  outer loop
    vertex 9.51682756865293 -2.799998253004253 -1.2609531362032
    vertex 9.67106041278068 -2.030848651103656 1.531745490823077
    vertex 8.75989048912237 -4.409601099368824 1.954414685533417
  endloop
endfacet
facet normal 0.610025 0.353861 0.708979
  outer loop
    vertex 7.25875172668705 2.226187936964098 6.508041997377806
    vertex 6.725255598835352 4.650476291916219 5.757083236210756
    vertex 4.845904470372625 2.867344801849976 8.264111788409359
  endloop
endfacet
facet normal 0.565519 0.410046 0.715578
  outer loop
    vertex 4.845904470372625 2.867344801849976 8.264111788409359
    vertex 6.725255598835352 4.650476291916219 5.757083236210756
    vertex 4.452393850284216 5.496726401795501 7.0683935845251
  endloop
endfacet
facet normal -0.0218959 -0.409559 0.912021
  outer loop
    vertex 1.506325540503648 -2.698172279019946 9.510565162951922
    vertex -2.448637030558391 -4.095536270284424 8.788103285201133
    vertex -0.6114653013787485 -5.998746846047318 7.977540126019244
  endloop
endfacet
facet normal 0.124675 -0.626203 0.769627
  outer loop
    vertex 2.501075653655083 -7.120882946485642 6.560308425458652
    vertex 2.603925850690623 -5.047865496279098 8.230347750586247
    vertex -0.6114653013787485 -5.998746846047318 7.977540126019244
  endloop
endfacet
facet normal -0.0194672 -0.415152 0.909544
  outer loop
    vertex 1.506325540503648 -2.698172279019946 9.510565162951922
    vertex -1.083094339892462 -2.147683890951572 9.706408221141331
    vertex -2.448637030558391 -4.095536270284424 8.788103285201133
  endloop
endfacet
facet normal -0.61368 -0.08633 -0.784821
  outer loop
    vertex -4.568626649045533 -1.099965180669645 -8.827101854116412
    vertex -6.083357127807862 -2.687053409825567 -7.468099492393902
    vertex -5.934975178208616 0.9841718103946093 -7.987958154727165
  endloop
endfacet
facet normal 0.747843 0.409289 -0.522698
  outer loop
    vertex 6.684312771311046 3.123682500842751 -6.750005215495527
    vertex 6.64779697718919 5.803451221336664 -4.703907872358924
    vertex 8.579604780797959 2.698172279020997 -4.37152698242061
  endloop
endfacet
facet normal 0.0811524 -0.68696 0.72215
  outer loop
    vertex -0.6114653013787485 -5.998746846047318 7.977540126019244
    vertex 0.2961384090154949 -8.052706473703244 5.921673791343427
    vertex 2.501075653655083 -7.120882946485642 6.560308425458652
  endloop
endfacet
facet normal 0.0644151 -0.454076 0.888631
  outer loop
    vertex -0.6114653013787485 -5.998746846047318 7.977540126019244
    vertex 2.603925850690623 -5.047865496279098 8.230347750586247
    vertex 1.506325540503648 -2.698172279019946 9.510565162951922
  endloop
endfacet
facet normal 0.702002 0.119942 -0.702002
  outer loop
    vertex 5.877852522924737 -1.439658655611995e-15 -8.090169943749469
    vertex 6.684312771311046 3.123682500842751 -6.750005215495527
    vertex 8.090169943749483 -1.981520145234185e-15 -5.877852522924719
  endloop
endfacet
facet normal -0.728485 -0.139809 -0.670643
  outer loop
    vertex -7.926583683361859 0.3025922737244868 -6.089146822547785
    vertex -6.083357127807862 -2.687053409825567 -7.468099492393902
    vertex -7.971027130287282 -2.651925370664808 -5.424944084195561
  endloop
endfacet
facet normal 0.599833 0.709855 -0.369198
  outer loop
    vertex 6.887534475184018 6.915780945949735 -2.175739589378792
    vertex 6.64779697718919 5.803451221336664 -4.703907872358924
    vertex 4.538620186839631 8.094107705173371 -3.726438951152273
  endloop
endfacet
facet normal 0.172363 0.711351 -0.681374
  outer loop
    vertex 1.79982434663307 8.195424200575264 -5.440188828881967
    vertex 3.366652944219244 7.076482842766324 -6.212007608592712
    vertex 0.1224928306508963 6.722426849790237 -7.402295100552154
  endloop
endfacet
facet normal 0.552925 0.203867 -0.807906
  outer loop
    vertex 3.889117958964871 3.160003623209328 -8.653851085069631
    vertex 6.684312771311046 3.123682500842751 -6.750005215495527
    vertex 5.877852522924737 -1.439658655611995e-15 -8.090169943749469
  endloop
endfacet
facet normal -0.070348 0.000649598 0.997522
  outer loop
    vertex -2.82061413764168 -0.463173357152689 9.582776545853491
    vertex -1.083094339892462 -2.147683890951572 9.706408221141331
    vertex -1.580911629912236 2.004733621182065 9.668596667899147
  endloop
endfacet
facet normal 0.495221 0.665801 0.55809
  outer loop
    vertex 6.023670495741631 6.924392560993946 3.970916949519782
    vertex 3.801271463622803 7.966024328840871 4.700296974890236
    vertex 4.452393850284216 5.496726401795501 7.0683935845251
  endloop
endfacet
facet normal -0.417036 0.148036 -0.896753
  outer loop
    vertex -2.309293155703117 0.8998233666684717 -9.688007175359655
    vertex -5.934975178208616 0.9841718103946093 -7.987958154727165
    vertex -4.091144853539113 3.48705920734143 -8.432256629862245
  endloop
endfacet
facet normal 0.553452 0.613357 0.563457
  outer loop
    vertex 4.452393850284216 5.496726401795501 7.0683935845251
    vertex 6.725255598835352 4.650476291916219 5.757083236210756
    vertex 6.023670495741631 6.924392560993946 3.970916949519782
  endloop
endfacet
facet normal 0.450385 0.125773 -0.883931
  outer loop
    vertex 3.090169943749472 -7.568733460868295e-16 -9.510565162951536
    vertex 3.889117958964871 3.160003623209328 -8.653851085069631
    vertex 5.877852522924737 -1.439658655611995e-15 -8.090169943749469
  endloop
endfacet
facet normal -0.0358207 0.551221 -0.83359
  outer loop
    vertex 1.375563183746627 5.006767508366505 -8.546350393278191
    vertex -1.177762576985288 4.060798455287114 -9.062162612632305
    vertex -1.970402960362738 6.065074936643203 -7.702751338755276
  endloop
endfacet
facet normal 0.284578 0.633056 0.7199
  outer loop
    vertex 4.452393850284216 5.496726401795501 7.0683935845251
    vertex 1.98925527167267 7.584925713401851 6.205784832420305
    vertex 1.687575237266783 5.402940242907217 8.243805344022727
  endloop
endfacet
facet normal -0.217943 -0.392798 -0.893426
  outer loop
    vertex -0.5401287115419381 -4.930994136008491 -8.682946378137892
    vertex -3.897716704793619 -4.325015144588605 -8.130316629028171
    vertex -1.698273768276606 -2.176810112045536 -9.611314371306346
  endloop
endfacet
facet normal -0.612063 -0.779996 0.130328
  outer loop
    vertex -4.67359911315986 -8.792817890966591 0.918599404402807
    vertex -5.732990379389007 -7.605921658214212 3.046765012097429
    vertex -7.431824132671255 -6.572887530026986 1.251055385928572
  endloop
endfacet
facet normal -0.230744 -0.54087 -0.808837
  outer loop
    vertex -2.536354242645938 -6.848338311693674 -6.831337315958025
    vertex -3.897716704793619 -4.325015144588605 -8.130316629028171
    vertex -0.5401287115419381 -4.930994136008491 -8.682946378137892
  endloop
endfacet
facet normal 0.890392 -0.436946 -0.127593
  outer loop
    vertex 8.172393547286589 -5.731115750546849 -0.6052238941931547
    vertex 8.439732530850376 -4.519535317202076 -2.888722091906565
    vertex 9.51682756865293 -2.799998253004253 -1.2609531362032
  endloop
endfacet
facet normal 0.506033 0.687944 -0.520253
  outer loop
    vertex 6.64779697718919 5.803451221336664 -4.703907872358924
    vertex 3.366652944219244 7.076482842766324 -6.212007608592712
    vertex 4.538620186839631 8.094107705173371 -3.726438951152273
  endloop
endfacet
facet normal 0.713542 0.555507 0.426929
  outer loop
    vertex 6.023670495741631 6.924392560993946 3.970916949519782
    vertex 6.725255598835352 4.650476291916219 5.757083236210756
    vertex 8.080986882643474 5.184198656699401 2.796736542905002
  endloop
endfacet
facet normal -0.272107 -0.900076 -0.340324
  outer loop
    vertex -2.850115357979979 -9.442642088764206 -1.647225798032985
    vertex -3.892002930783111 -8.073557889855627 -4.435084687570875
    vertex -1.038972844099973 -9.069405639150697 -4.082452299998661
  endloop
endfacet
facet normal -0.421252 0.0873 -0.902732
  outer loop
    vertex -4.568626649045533 -1.099965180669645 -8.827101854116412
    vertex -5.934975178208616 0.9841718103946093 -7.987958154727165
    vertex -2.309293155703117 0.8998233666684717 -9.688007175359655
  endloop
endfacet
facet normal -0.365238 0.441172 0.819737
  outer loop
    vertex -3.366815949052337 2.8613354662071 8.970914653201881
    vertex -2.474091427709974 5.668670877351584 7.857801352261207
    vertex -4.759375400070312 5.205235712210384 7.088996189978889
  endloop
endfacet
facet normal 0.788505 0.430945 0.438802
  outer loop
    vertex 8.080986882643474 5.184198656699401 2.796736542905002
    vertex 6.725255598835352 4.650476291916219 5.757083236210756
    vertex 8.521028438990575 2.604100028135897 4.53990499739548
  endloop
endfacet
facet normal -0.345733 -0.266317 -0.899747
  outer loop
    vertex -3.897716704793619 -4.325015144588605 -8.130316629028171
    vertex -4.568626649045533 -1.099965180669645 -8.827101854116412
    vertex -1.698273768276606 -2.176810112045536 -9.611314371306346
  endloop
endfacet
facet normal -0.405534 -0.700286 -0.587487
  outer loop
    vertex -3.892002930783111 -8.073557889855627 -4.435084687570875
    vertex -5.414983191087297 -5.834246892854694 -6.053058750206986
    vertex -2.536354242645938 -6.848338311693674 -6.831337315958025
  endloop
endfacet
facet normal 0.33897 -0.831664 -0.439811
  outer loop
    vertex 4.749887840243403 -8.115272368972862 -3.403075062718051
    vertex 2.035935337485914 -9.064778736701671 -3.699290980203824
    vertex 3.626744331877764 -7.328077742698366 -5.757256477538703
  endloop
endfacet
facet normal -0.323314 -0.925489 0.19733
  outer loop
    vertex -1.640298713076606 -9.78966202142171 1.213234370685487
    vertex -3.382379561788087 -8.649010056220447 3.708656569082096
    vertex -4.67359911315986 -8.792817890966591 0.918599404402807
  endloop
endfacet
facet normal -0.468314 0.842672 -0.265681
  outer loop
    vertex -5.302344459056538 7.50337932215949 -3.947713513579955
    vertex -5.533632288230268 8.243660398414859 -1.192047370812931
    vertex -3.124034505089659 9.112974234113146 -2.682183628948453
  endloop
endfacet
facet normal -0.09906 0.773419 0.626108
  outer loop
    vertex -2.735219616353367 7.342759134080371 6.213087956016317
    vertex -0.1208699436825661 6.694241208005193 7.42782102004076
    vertex -0.4519537846544205 8.721970751480919 4.870622546127744
  endloop
endfacet
facet normal 0.887408 0.352253 0.297362
  outer loop
    vertex 9.517977425774882 2.70622338527515 1.443766155383097
    vertex 8.080986882643474 5.184198656699401 2.796736542905002
    vertex 8.521028438990575 2.604100028135897 4.53990499739548
  endloop
endfacet
facet normal 0.369588 0.692075 0.62003
  outer loop
    vertex 4.452393850284216 5.496726401795501 7.0683935845251
    vertex 3.801271463622803 7.966024328840871 4.700296974890236
    vertex 1.98925527167267 7.584925713401851 6.205784832420305
  endloop
endfacet
facet normal -0.187173 -0.93626 0.297295
  outer loop
    vertex -0.3849110705361233 -9.152230318584493 4.011050194570188
    vertex -3.382379561788087 -8.649010056220447 3.708656569082096
    vertex -1.640298713076606 -9.78966202142171 1.213234370685487
  endloop
endfacet
facet normal 0.933819 0.184067 0.306759
  outer loop
    vertex 9.510565162951531 -2.329416636978184e-15 3.090169943749489
    vertex 9.517977425774882 2.70622338527515 1.443766155383097
    vertex 8.521028438990575 2.604100028135897 4.53990499739548
  endloop
endfacet
facet normal -0.397852 0.418958 0.816203
  outer loop
    vertex -4.759375400070312 5.205235712210384 7.088996189978889
    vertex -5.277945696172513 3.178264685427728 7.876669525733387
    vertex -3.366815949052337 2.8613354662071 8.970914653201881
  endloop
endfacet
facet normal -0.291032 -0.0815605 -0.953231
  outer loop
    vertex -4.568626649045533 -1.099965180669645 -8.827101854116412
    vertex -2.309293155703117 0.8998233666684717 -9.688007175359655
    vertex -1.698273768276606 -2.176810112045536 -9.611314371306346
  endloop
endfacet
facet normal -0.383508 0.832832 -0.39914
  outer loop
    vertex -2.822158683366983 7.999450814114106 -5.295678147174873
    vertex -5.302344459056538 7.50337932215949 -3.947713513579955
    vertex -3.124034505089659 9.112974234113146 -2.682183628948453
  endloop
endfacet
facet normal -0.396713 -0.580211 -0.711319
  outer loop
    vertex -5.414983191087297 -5.834246892854694 -6.053058750206986
    vertex -3.897716704793619 -4.325015144588605 -8.130316629028171
    vertex -2.536354242645938 -6.848338311693674 -6.831337315958025
  endloop
endfacet
facet normal -0.787175 -0.397443 0.471587
  outer loop
    vertex -6.788180220589733 -4.287658230007782 5.961257937335112
    vertex -8.436641033388526 -2.394513637789688 4.805142298848618
    vertex -8.414110450215833 -4.372089449532242 3.176094957153762
  endloop
endfacet
facet normal 0.887547 0.439855 0.137067
  outer loop
    vertex 9.517977425774882 2.70622338527515 1.443766155383097
    vertex 8.572514001024185 5.142758975403156 -0.2530490528625062
    vertex 8.080986882643474 5.184198656699401 2.796736542905002
  endloop
endfacet
facet normal 0.792522 0.597999 0.119604
  outer loop
    vertex 8.572514001024185 5.142758975403156 -0.2530490528625062
    vertex 6.756310327397227 7.314144871385813 0.9249624642579851
    vertex 8.080986882643474 5.184198656699401 2.796736542905002
  endloop
endfacet
facet normal 0.526888 0.367107 -0.766565
  outer loop
    vertex 3.889117958964871 3.160003623209328 -8.653851085069631
    vertex 4.797253184958235 5.255403254503368 -7.026172394124947
    vertex 6.684312771311046 3.123682500842751 -6.750005215495527
  endloop
endfacet
facet normal 0.70507 0.661975 0.254294
  outer loop
    vertex 6.756310327397227 7.314144871385813 0.9249624642579851
    vertex 6.023670495741631 6.924392560993946 3.970916949519782
    vertex 8.080986882643474 5.184198656699401 2.796736542905002
  endloop
endfacet
facet normal 0.751752 0.657342 -0.0526375
  outer loop
    vertex 8.572514001024185 5.142758975403156 -0.2530490528625062
    vertex 6.887534475184018 6.915780945949735 -2.175739589378792
    vertex 6.756310327397227 7.314144871385813 0.9249624642579851
  endloop
endfacet
facet normal 0.628914 0.477216 -0.613785
  outer loop
    vertex 4.797253184958235 5.255403254503368 -7.026172394124947
    vertex 6.64779697718919 5.803451221336664 -4.703907872358924
    vertex 6.684312771311046 3.123682500842751 -6.750005215495527
  endloop
endfacet
facet normal 0.324349 0.488607 -0.809976
  outer loop
    vertex 3.889117958964871 3.160003623209328 -8.653851085069631
    vertex 1.375563183746627 5.006767508366505 -8.546350393278191
    vertex 4.797253184958235 5.255403254503368 -7.026172394124947
  endloop
endfacet
facet normal 0.622133 0.779425 -0.0738078
  outer loop
    vertex 6.887534475184018 6.915780945949735 -2.175739589378792
    vertex 4.707514830058204 8.777066357883852 -0.8957735618366951
    vertex 6.756310327397227 7.314144871385813 0.9249624642579851
  endloop
endfacet
facet normal 0.552089 0.802419 -0.226542
  outer loop
    vertex 6.887534475184018 6.915780945949735 -2.175739589378792
    vertex 4.538620186839631 8.094107705173371 -3.726438951152273
    vertex 4.707514830058204 8.777066357883852 -0.8957735618366951
  endloop
endfacet
facet normal 0.379758 0.893861 -0.238322
  outer loop
    vertex 4.538620186839631 8.094107705173371 -3.726438951152273
    vertex 2.126768084680263 9.424057887695097 -2.581470597035197
    vertex 4.707514830058204 8.777066357883852 -0.8957735618366951
  endloop
endfacet
facet normal 0.286027 0.868057 -0.40579
  outer loop
    vertex 4.538620186839631 8.094107705173371 -3.726438951152273
    vertex 1.79982434663307 8.195424200575264 -5.440188828881967
    vertex 2.126768084680263 9.424057887695097 -2.581470597035197
  endloop
endfacet
facet normal 0.303733 0.947346 -0.101402
  outer loop
    vertex 2.126768084680263 9.424057887695097 -2.581470597035197
    vertex 2.124235263940154 9.757568407207069 0.5267668574498655
    vertex 4.707514830058204 8.777066357883852 -0.8957735618366951
  endloop
endfacet
facet normal 0.123463 0.986696 -0.105771
  outer loop
    vertex 2.126768084680263 9.424057887695097 -2.581470597035197
    vertex -0.584824109196725 9.925991668531175 -1.064269776678801
    vertex 2.124235263940154 9.757568407207069 0.5267668574498655
  endloop
endfacet
facet normal 0.0320742 0.998181 0.0510522
  outer loop
    vertex -0.584824109196725 9.925991668531175 -1.064269776678801
    vertex -0.6180437338628563 9.767680034734267 2.051937787089668
    vertex 2.124235263940154 9.757568407207069 0.5267668574498655
  endloop
endfacet
facet normal 0.118235 0.971351 0.206149
  outer loop
    vertex -0.6180437338628563 9.767680034734267 2.051937787089668
    vertex 2.019408067413384 9.129623324002537 3.545697254292107
    vertex 2.124235263940154 9.757568407207069 0.5267668574498655
  endloop
endfacet
facet normal -0.15171 0.987233 0.0485368
  outer loop
    vertex -0.584824109196725 9.925991668531175 -1.064269776678801
    vertex -3.27274822168665 9.439893745691611 0.4213373321927278
    vertex -0.6180437338628563 9.767680034734267 2.051937787089668
  endloop
endfacet
facet normal -0.236956 0.964927 -0.112998
  outer loop
    vertex -0.584824109196725 9.925991668531175 -1.064269776678801
    vertex -3.124034505089659 9.112974234113146 -2.682183628948453
    vertex -3.27274822168665 9.439893745691611 0.4213373321927278
  endloop
endfacet
facet normal -0.236937 0.951877 0.194398
  outer loop
    vertex -3.27274822168665 9.439893745691611 0.4213373321927278
    vertex -3.203214232407539 8.856889559470382 3.36079245307507
    vertex -0.6180437338628563 9.767680034734267 2.051937787089668
  endloop
endfacet
facet normal -0.416827 0.889686 0.186318
  outer loop
    vertex -3.27274822168665 9.439893745691611 0.4213373321927278
    vertex -5.713735879507781 8.015142808422661 1.763719949372902
    vertex -3.203214232407539 8.856889559470382 3.36079245307507
  endloop
endfacet
facet normal -0.484129 0.808332 0.334991
  outer loop
    vertex -5.713735879507781 8.015142808422661 1.763719949372902
    vertex -5.455068943783577 6.975797116864567 4.645479243620827
    vertex -3.203214232407539 8.856889559470382 3.36079245307507
  endloop
endfacet
facet normal 0.300217 -0.180593 -0.936619
  outer loop
    vertex 4.371526982924663 -2.698172279354425 -8.579604780436272
    vertex 1.396663028395337 -2.630486925467601 -9.546196673024163
    vertex 3.090169943749472 -7.568733460868295e-16 -9.510565162951536
  endloop
endfacet
facet normal 0.452088 -0.0914433 -0.887273
  outer loop
    vertex 5.877852522924737 -1.439658655611995e-15 -8.090169943749469
    vertex 4.371526982924663 -2.698172279354425 -8.579604780436272
    vertex 3.090169943749472 -7.568733460868295e-16 -9.510565162951536
  endloop
endfacet
facet normal 0.31436 -0.945139 0.088824
  outer loop
    vertex 4.437295718252738 -8.747553544958658 1.946975522921933
    vertex 1.498452020117303 -9.758818957578757 1.587480424007759
    vertex 3.339916290517204 -9.38138320363618 -0.9135690224995459
  endloop
endfacet
facet normal -0.638373 -0.283629 0.715566
  outer loop
    vertex -7.320677172245138 -1.219755620370129 6.702229626500752
    vertex -6.788180220589733 -4.287658230007782 5.961257937335112
    vertex -4.942682503566604 -2.405965138019428 8.353515512858747
  endloop
endfacet
facet normal -0.63895 0.703537 0.311093
  outer loop
    vertex -5.713735879507781 8.015142808422661 1.763719949372902
    vertex -7.652544975674124 5.792635038433847 2.807834522687051
    vertex -5.455068943783577 6.975797116864567 4.645479243620827
  endloop
endfacet
facet normal 0.281345 -0.356655 -0.890866
  outer loop
    vertex 4.371526982924663 -2.698172279354425 -8.579604780436272
    vertex 2.533321381359539 -5.194986426219431 -8.160539124968549
    vertex 1.396663028395337 -2.630486925467601 -9.546196673024163
  endloop
endfacet
facet normal 0.542868 -0.356655 0.760323
  outer loop
    vertex 4.278242477509452 -2.630486925030734 8.647379940818846
    vertex 4.931077080191998 -5.19498642595689 6.978294552634534
    vertex 6.808812905081736 -2.698172279030527 6.808812905071164
  endloop
endfacet
facet normal -0.877022 0.0949758 -0.470969
  outer loop
    vertex -8.62384553782239 2.640780647917516 -4.319208921708371
    vertex -7.926583683361859 0.3025922737244868 -6.089146822547785
    vertex -9.295689795525668 -0.3452227562579247 -3.670282342534655
  endloop
endfacet
facet normal 0.173938 -0.984543 -0.0205118
  outer loop
    vertex 1.498452020117303 -9.758818957578757 1.587480424007759
    vertex 0.2836282610584146 -9.913702868289167 -1.279863449280485
    vertex 3.339916290517204 -9.38138320363618 -0.9135690224995459
  endloop
endfacet
facet normal 0.114885 -0.432327 -0.894368
  outer loop
    vertex 2.533321381359539 -5.194986426219431 -8.160539124968549
    vertex -0.5401287115419381 -4.930994136008491 -8.682946378137892
    vertex 1.396663028395337 -2.630486925467601 -9.546196673024163
  endloop
endfacet
facet normal -0.892323 -0.207486 -0.400886
  outer loop
    vertex -9.295689795525668 -0.3452227562579247 -3.670282342534655
    vertex -7.971027130287282 -2.651925370664808 -5.424944084195561
    vertex -9.023940214313845 -3.336469366507655 -2.726990131050239
  endloop
endfacet
facet normal -0.535185 -0.540518 0.649167
  outer loop
    vertex -6.788180220589733 -4.287658230007782 5.961257937335112
    vertex -5.125642886748046 -6.806128021450989 5.234921809649959
    vertex -3.831224548921641 -5.234630769454176 7.610542632639524
  endloop
endfacet
facet normal -0.0285272 -0.330039 -0.943536
  outer loop
    vertex -0.5401287115419381 -4.930994136008491 -8.682946378137892
    vertex -1.698273768276606 -2.176810112045536 -9.611314371306346
    vertex 1.396663028395337 -2.630486925467601 -9.546196673024163
  endloop
endfacet
facet normal -0.383739 0.788086 0.481315
  outer loop
    vertex -5.455068943783577 6.975797116864567 4.645479243620827
    vertex -2.735219616353367 7.342759134080371 6.213087956016317
    vertex -3.203214232407539 8.856889559470382 3.36079245307507
  endloop
endfacet
facet normal -0.706779 0.689964 0.156249
  outer loop
    vertex -5.713735879507781 8.015142808422661 1.763719949372902
    vertex -7.58109193202469 6.520734120688007 -0.08409307632219309
    vertex -7.652544975674124 5.792635038433847 2.807834522687051
  endloop
endfacet
facet normal -0.601997 -0.104891 0.791579
  outer loop
    vertex -7.320677172245138 -1.219755620370129 6.702229626500752
    vertex -4.942682503566604 -2.405965138019428 8.353515512858747
    vertex -5.601805741629402 0.654594381637953 8.25780107707711
  endloop
endfacet
facet normal 0.640775 -0.439151 0.629725
  outer loop
    vertex 4.931077080191998 -5.19498642595689 6.978294552634534
    vertex 7.167144960388376 -5.064666913626114 4.793869227544741
    vertex 6.808812905081736 -2.698172279030527 6.808812905071164
  endloop
endfacet
facet normal 0.578996 -0.595251 0.557172
  outer loop
    vertex 4.931077080191998 -5.19498642595689 6.978294552634534
    vertex 4.985917602411501 -7.304111183322659 4.668038719165045
    vertex 7.167144960388376 -5.064666913626114 4.793869227544741
  endloop
endfacet
facet normal 0.553787 -0.776614 0.300316
  outer loop
    vertex 4.985917602411501 -7.304111183322659 4.668038719165045
    vertex 4.437295718252738 -8.747553544958658 1.946975522921933
    vertex 6.917118240406971 -6.863513068501577 2.246255463373935
  endloop
endfacet
facet normal 0.646304 -0.651798 0.396799
  outer loop
    vertex 4.985917602411501 -7.304111183322659 4.668038719165045
    vertex 6.917118240406971 -6.863513068501577 2.246255463373935
    vertex 7.167144960388376 -5.064666913626114 4.793869227544741
  endloop
endfacet
facet normal 0.0802867 -0.616007 -0.783638
  outer loop
    vertex 2.533321381359539 -5.194986426219431 -8.160539124968549
    vertex 0.641359216176424 -7.609413545927535 -6.456429651353765
    vertex -0.5401287115419381 -4.930994136008491 -8.682946378137892
  endloop
endfacet
facet normal 0.00356115 -0.998618 0.0524331
  outer loop
    vertex 1.498452020117303 -9.758818957578757 1.587480424007759
    vertex -1.640298713076606 -9.78966202142171 1.213234370685487
    vertex 0.2836282610584146 -9.913702868289167 -1.279863449280485
  endloop
endfacet
facet normal 0.590933 -0.797314 0.122834
  outer loop
    vertex 4.437295718252738 -8.747553544958658 1.946975522921933
    vertex 6.084695276380654 -7.914976098633434 -0.5741400104960827
    vertex 6.917118240406971 -6.863513068501577 2.246255463373935
  endloop
endfacet
facet normal -0.0682225 -0.655387 -0.752206
  outer loop
    vertex 0.641359216176424 -7.609413545927535 -6.456429651353765
    vertex -2.536354242645938 -6.848338311693674 -6.831337315958025
    vertex -0.5401287115419381 -4.930994136008491 -8.682946378137892
  endloop
endfacet
facet normal 0.574955 -0.180593 0.798006
  outer loop
    vertex 5.877852522924734 -1.439658655611994e-15 8.090169943749473
    vertex 4.278242477509452 -2.630486925030734 8.647379940818846
    vertex 6.808812905081736 -2.698172279030527 6.808812905071164
  endloop
endfacet
facet normal 0.704144 -0.0914433 0.704144
  outer loop
    vertex 5.877852522924734 -1.439658655611994e-15 8.090169943749473
    vertex 6.808812905081736 -2.698172279030527 6.808812905071164
    vertex 8.090169943749469 -1.981520145234182e-15 5.877852522924735
  endloop
endfacet
facet normal -0.141495 -0.988117 -0.0600298
  outer loop
    vertex -1.640298713076606 -9.78966202142171 1.213234370685487
    vertex -2.850115357979979 -9.442642088764206 -1.647225798032985
    vertex 0.2836282610584146 -9.913702868289167 -1.279863449280485
  endloop
endfacet
facet normal -0.117455 -0.964817 -0.235228
  outer loop
    vertex -2.850115357979979 -9.442642088764206 -1.647225798032985
    vertex -1.038972844099973 -9.069405639150697 -4.082452299998661
    vertex 0.2836282610584146 -9.913702868289167 -1.279863449280485
  endloop
endfacet
facet normal -0.533185 0.425007 -0.731493
  outer loop
    vertex -4.862102253230535 5.830886552027073 -6.508511634507569
    vertex -4.091144853539113 3.48705920734143 -8.432256629862245
    vertex -6.742420071794005 3.320457799384027 -6.596539363786068
  endloop
endfacet
facet normal 0.777586 -0.547067 0.309965
  outer loop
    vertex 6.917118240406971 -6.863513068501577 2.246255463373935
    vertex 8.75989048912237 -4.409601099368824 1.954414685533417
    vertex 7.167144960388376 -5.064666913626114 4.793869227544741
  endloop
endfacet
facet normal -0.017826 -0.973098 0.229701
  outer loop
    vertex 1.498452020117303 -9.758818957578757 1.587480424007759
    vertex -0.3849110705361233 -9.152230318584493 4.011050194570188
    vertex -1.640298713076606 -9.78966202142171 1.213234370685487
  endloop
endfacet
facet normal 0.469681 -0.882702 0.015404
  outer loop
    vertex 4.437295718252738 -8.747553544958658 1.946975522921933
    vertex 3.339916290517204 -9.38138320363618 -0.9135690224995459
    vertex 6.084695276380654 -7.914976098633434 -0.5741400104960827
  endloop
endfacet
facet normal -0.362128 0.517313 -0.775403
  outer loop
    vertex -4.862102253230535 5.830886552027073 -6.508511634507569
    vertex -1.970402960362738 6.065074936643203 -7.702751338755276
    vertex -4.091144853539113 3.48705920734143 -8.432256629862245
  endloop
endfacet
facet normal -0.3272 0.676681 -0.659577
  outer loop
    vertex -4.862102253230535 5.830886552027073 -6.508511634507569
    vertex -2.822158683366983 7.999450814114106 -5.295678147174873
    vertex -1.970402960362738 6.065074936643203 -7.702751338755276
  endloop
endfacet
facet normal 0.48057 -0.861144 -0.165781
  outer loop
    vertex 3.339916290517204 -9.38138320363618 -0.9135690224995459
    vertex 4.749887840243403 -8.115272368972862 -3.403075062718051
    vertex 6.084695276380654 -7.914976098633434 -0.5741400104960827
  endloop
endfacet
facet normal -0.273507 0.463492 -0.842834
  outer loop
    vertex -1.970402960362738 6.065074936643203 -7.702751338755276
    vertex -1.177762576985288 4.060798455287114 -9.062162612632305
    vertex -4.091144853539113 3.48705920734143 -8.432256629862245
  endloop
endfacet
facet normal -0.313693 -0.949363 0.0175016
  outer loop
    vertex -1.640298713076606 -9.78966202142171 1.213234370685487
    vertex -4.67359911315986 -8.792817890966591 0.918599404402807
    vertex -2.850115357979979 -9.442642088764206 -1.647225798032985
  endloop
endfacet
facet normal 0.59883 -0.767677 -0.228199
  outer loop
    vertex 4.749887840243403 -8.115272368972862 -3.403075062718051
    vertex 7.036839712405832 -6.470208440809763 -2.935862666131082
    vertex 6.084695276380654 -7.914976098633434 -0.5741400104960827
  endloop
endfacet
facet normal -0.441063 -0.893226 -0.0872357
  outer loop
    vertex -4.67359911315986 -8.792817890966591 0.918599404402807
    vertex -5.621184118668891 -8.049831511695198 -1.898025747281542
    vertex -2.850115357979979 -9.442642088764206 -1.647225798032985
  endloop
endfacet
facet normal 0.451301 0.108691 0.885728
  outer loop
    vertex 5.877852522924734 -1.439658655611994e-15 8.090169943749473
    vertex 4.845904470372625 2.867344801849976 8.264111788409359
    vertex 3.090169943749477 -7.568733460868307e-16 9.510565162951535
  endloop
endfacet
facet normal 0.983493 0.0920731 0.15577
  outer loop
    vertex 10 -2.449293598294707e-15 2.419605899270905e-14
    vertex 9.517977425774882 2.70622338527515 1.443766155383097
    vertex 9.510565162951531 -2.329416636978184e-15 3.090169943749489
  endloop
endfacet
facet normal 0.887273 0.0914433 -0.452088
  outer loop
    vertex 8.090169943749483 -1.981520145234185e-15 -5.877852522924719
    vertex 8.579604780797959 2.698172279020997 -4.37152698242061
    vertex 9.510565162951544 -2.329416636978187e-15 -3.090169943749451
  endloop
endfacet
facet normal -0.951593 -0.288759 -0.105304
  outer loop
    vertex -9.023940214313845 -3.336469366507655 -2.726990131050239
    vertex -9.143006477800007 -4.040672084514985 0.2800029505709525
    vertex -9.908261469751396 -1.170120917004095 -0.6761447231395072
  endloop
endfacet
facet normal -0.956867 -0.16281 -0.240621
  outer loop
    vertex -9.295689795525668 -0.3452227562579247 -3.670282342534655
    vertex -9.023940214313845 -3.336469366507655 -2.726990131050239
    vertex -9.908261469751396 -1.170120917004095 -0.6761447231395072
  endloop
endfacet
facet normal -0.540883 -0.406006 0.736617
  outer loop
    vertex -6.788180220589733 -4.287658230007782 5.961257937335112
    vertex -3.831224548921641 -5.234630769454176 7.610542632639524
    vertex -4.942682503566604 -2.405965138019428 8.353515512858747
  endloop
endfacet
facet normal 0.982788 -0.0994923 -0.155658
  outer loop
    vertex 10 -2.449293598294707e-15 2.419605899270905e-14
    vertex 9.51682756865293 -2.799998253004253 -1.2609531362032
    vertex 9.510565162951544 -2.329416636978187e-15 -3.090169943749451
  endloop
endfacet
facet normal -0.980216 0.0104847 -0.197654
  outer loop
    vertex -9.711490048949516 1.860993251306056 -1.491195878396884
    vertex -9.295689795525668 -0.3452227562579247 -3.670282342534655
    vertex -9.908261469751396 -1.170120917004095 -0.6761447231395072
  endloop
endfacet
facet normal 0.155779 -0.0914433 0.98355
  outer loop
    vertex 6.123233995736766e-16 -1.499759782661858e-31 10
    vertex 1.506325540503648 -2.698172279019946 9.510565162951922
    vertex 3.090169943749477 -7.568733460868307e-16 9.510565162951535
  endloop
endfacet
facet normal 0.943848 -0.17921 -0.27755
  outer loop
    vertex 9.51682756865293 -2.799998253004253 -1.2609531362032
    vertex 8.687606039729509 -2.492857390725898 -4.27915451087696
    vertex 9.510565162951544 -2.329416636978187e-15 -3.090169943749451
  endloop
endfacet
facet normal -0.998016 0.0585821 -0.0230806
  outer loop
    vertex -9.711490048949516 1.860993251306056 -1.491195878396884
    vertex -9.908261469751396 -1.170120917004095 -0.6761447231395072
    vertex -9.830197120800591 1.025673052764278 1.52158448830059
  endloop
endfacet
facet normal -0.233036 -0.623522 0.746267
  outer loop
    vertex -2.236008713871744 -7.524208967834982 6.19568756796542
    vertex -0.6114653013787485 -5.998746846047318 7.977540126019244
    vertex -3.831224548921641 -5.234630769454176 7.610542632639524
  endloop
endfacet
facet normal -0.379336 -0.663073 0.64532
  outer loop
    vertex -5.125642886748046 -6.806128021450989 5.234921809649959
    vertex -2.236008713871744 -7.524208967834982 6.19568756796542
    vertex -3.831224548921641 -5.234630769454176 7.610542632639524
  endloop
endfacet
facet normal -0.972307 0.232247 0.0260824
  outer loop
    vertex -9.14680580145663 3.976096306919501 0.7256733345937765
    vertex -9.711490048949516 1.860993251306056 -1.491195878396884
    vertex -9.830197120800591 1.025673052764278 1.52158448830059
  endloop
endfacet
facet normal -0.93619 0.135753 0.32422
  outer loop
    vertex -9.830197120800591 1.025673052764278 1.52158448830059
    vertex -9.005860401599664 -0.03654910705395303 4.346624275190197
    vertex -8.78764808397592 3.016464070710296 3.698403123282831
  endloop
endfacet
facet normal -0.828717 0.547237 0.117302
  outer loop
    vertex -7.58109193202469 6.520734120688007 -0.08409307632219309
    vertex -9.14680580145663 3.976096306919501 0.7256733345937765
    vertex -7.652544975674124 5.792635038433847 2.807834522687051
  endloop
endfacet
facet normal 0.420859 -0.664937 0.617038
  outer loop
    vertex 4.931077080191998 -5.19498642595689 6.978294552634534
    vertex 2.501075653655083 -7.120882946485642 6.560308425458652
    vertex 4.985917602411501 -7.304111183322659 4.668038719165045
  endloop
endfacet
facet normal -0.94086 0.272304 0.201575
  outer loop
    vertex -9.14680580145663 3.976096306919501 0.7256733345937765
    vertex -9.830197120800591 1.025673052764278 1.52158448830059
    vertex -8.78764808397592 3.016464070710296 3.698403123282831
  endloop
endfacet
facet normal -0.845067 -0.511972 0.154101
  outer loop
    vertex -7.431824132671255 -6.572887530026986 1.251055385928572
    vertex -8.414110450215833 -4.372089449532242 3.176094957153762
    vertex -9.143006477800007 -4.040672084514985 0.2800029505709525
  endloop
endfacet
facet normal -0.825536 -0.564114 -0.0162884
  outer loop
    vertex -7.799547815792613 -5.941894343250469 -1.964928874746549
    vertex -7.431824132671255 -6.572887530026986 1.251055385928572
    vertex -9.143006477800007 -4.040672084514985 0.2800029505709525
  endloop
endfacet
facet normal -0.867479 0.433167 0.244638
  outer loop
    vertex -9.14680580145663 3.976096306919501 0.7256733345937765
    vertex -8.78764808397592 3.016464070710296 3.698403123282831
    vertex -7.652544975674124 5.792635038433847 2.807834522687051
  endloop
endfacet
facet normal -0.438719 0.663704 0.605824
  outer loop
    vertex -5.455068943783577 6.975797116864567 4.645479243620827
    vertex -4.759375400070312 5.205235712210384 7.088996189978889
    vertex -2.735219616353367 7.342759134080371 6.213087956016317
  endloop
endfacet
facet normal 0.414818 -0.439151 -0.796914
  outer loop
    vertex 4.371526982924663 -2.698172279354425 -8.579604780436272
    vertex 5.334972857969081 -5.064666913900928 -6.774010160604313
    vertex 2.533321381359539 -5.194986426219431 -8.160539124968549
  endloop
endfacet
facet normal -0.696251 0.043891 0.716456
  outer loop
    vertex -7.320677172245138 -1.219755620370129 6.702229626500752
    vertex -5.601805741629402 0.654594381637953 8.25780107707711
    vertex -7.516949977940957 1.879488863921502 6.321628321843077
  endloop
endfacet
facet normal -0.393594 0.10345 0.913445
  outer loop
    vertex -2.82061413764168 -0.463173357152689 9.582776545853491
    vertex -3.366815949052337 2.8613354662071 8.970914653201881
    vertex -5.601805741629402 0.654594381637953 8.25780107707711
  endloop
endfacet
facet normal -0.318341 -0.233599 0.918744
  outer loop
    vertex -4.942682503566604 -2.405965138019428 8.353515512858747
    vertex -2.448637030558391 -4.095536270284424 8.788103285201133
    vertex -2.82061413764168 -0.463173357152689 9.582776545853491
  endloop
endfacet
facet normal -0.632711 0.494791 -0.5957
  outer loop
    vertex -7.194210136759508 5.346298465244656 -4.434008708682178
    vertex -4.862102253230535 5.830886552027073 -6.508511634507569
    vertex -6.742420071794005 3.320457799384027 -6.596539363786068
  endloop
endfacet
facet normal -0.936438 0.140869 -0.321308
  outer loop
    vertex -9.711490048949516 1.860993251306056 -1.491195878396884
    vertex -8.62384553782239 2.640780647917516 -4.319208921708371
    vertex -9.295689795525668 -0.3452227562579247 -3.670282342534655
  endloop
endfacet
facet normal -0.87942 -0.454598 -0.141284
  outer loop
    vertex -9.023940214313845 -3.336469366507655 -2.726990131050239
    vertex -7.799547815792613 -5.941894343250469 -1.964928874746549
    vertex -9.143006477800007 -4.040672084514985 0.2800029505709525
  endloop
endfacet
facet normal -0.808076 0.0211202 0.5887
  outer loop
    vertex -9.005860401599664 -0.03654910705395303 4.346624275190197
    vertex -7.320677172245138 -1.219755620370129 6.702229626500752
    vertex -7.516949977940957 1.879488863921502 6.321628321843077
  endloop
endfacet
facet normal -0.783623 0.20913 -0.584978
  outer loop
    vertex -8.62384553782239 2.640780647917516 -4.319208921708371
    vertex -6.742420071794005 3.320457799384027 -6.596539363786068
    vertex -7.926583683361859 0.3025922737244868 -6.089146822547785
  endloop
endfacet
facet normal -0.451667 -0.069454 0.889479
  outer loop
    vertex -4.942682503566604 -2.405965138019428 8.353515512858747
    vertex -2.82061413764168 -0.463173357152689 9.582776545853491
    vertex -5.601805741629402 0.654594381637953 8.25780107707711
  endloop
endfacet
facet normal -0.857792 0.164689 0.486898
  outer loop
    vertex -9.005860401599664 -0.03654910705395303 4.346624275190197
    vertex -7.516949977940957 1.879488863921502 6.321628321843077
    vertex -8.78764808397592 3.016464070710296 3.698403123282831
  endloop
endfacet
facet normal -0.765157 0.382339 -0.518027
  outer loop
    vertex -8.62384553782239 2.640780647917516 -4.319208921708371
    vertex -7.194210136759508 5.346298465244656 -4.434008708682178
    vertex -6.742420071794005 3.320457799384027 -6.596539363786068
  endloop
endfacet
facet normal -0.66097 0.336217 0.670878
  outer loop
    vertex -7.516949977940957 1.879488863921502 6.321628321843077
    vertex -5.277945696172513 3.178264685427728 7.876669525733387
    vertex -6.961950017674789 4.617813168031558 5.496094385702667
  endloop
endfacet
facet normal -0.412225 -0.869272 -0.272831
  outer loop
    vertex -2.850115357979979 -9.442642088764206 -1.647225798032985
    vertex -5.621184118668891 -8.049831511695198 -1.898025747281542
    vertex -3.892002930783111 -8.073557889855627 -4.435084687570875
  endloop
endfacet
facet normal 0.155794 0.0904229 0.983642
  outer loop
    vertex 3.090169943749477 -7.568733460868307e-16 9.510565162951535
    vertex 1.59269840977238 2.681307598933273 9.501257881744461
    vertex 6.123233995736766e-16 -1.499759782661858e-31 10
  endloop
endfacet
facet normal -0.0453423 0.53109 -0.846101
  outer loop
    vertex -1.970402960362738 6.065074936643203 -7.702751338755276
    vertex 0.1224928306508963 6.722426849790237 -7.402295100552154
    vertex 1.375563183746627 5.006767508366505 -8.546350393278191
  endloop
endfacet
facet normal -0.224945 0.84486 0.485399
  outer loop
    vertex -2.735219616353367 7.342759134080371 6.213087956016317
    vertex -0.4519537846544205 8.721970751480919 4.870622546127744
    vertex -3.203214232407539 8.856889559470382 3.36079245307507
  endloop
endfacet
facet normal -0.192102 -0.857903 0.476548
  outer loop
    vertex -2.236008713871744 -7.524208967834982 6.19568756796542
    vertex -3.382379561788087 -8.649010056220447 3.708656569082096
    vertex -0.3849110705361233 -9.152230318584493 4.011050194570188
  endloop
endfacet
facet normal -0.761255 -0.458737 0.458314
  outer loop
    vertex -8.414110450215833 -4.372089449532242 3.176094957153762
    vertex -6.931789580430937 -5.969290085181797 4.039538227518015
    vertex -6.788180220589733 -4.287658230007782 5.961257937335112
  endloop
endfacet
facet normal 0.0338813 0.965335 -0.258807
  outer loop
    vertex 2.126768084680263 9.424057887695097 -2.581470597035197
    vertex -0.5695862979316769 9.124330494456212 -4.05242698603503
    vertex -0.584824109196725 9.925991668531175 -1.064269776678801
  endloop
endfacet
facet normal -0.544614 -0.437405 -0.715592
  outer loop
    vertex -5.414983191087297 -5.834246892854694 -6.053058750206986
    vertex -6.083357127807862 -2.687053409825567 -7.468099492393902
    vertex -3.897716704793619 -4.325015144588605 -8.130316629028171
  endloop
endfacet
facet normal 0.155841 -0.0870025 -0.983943
  outer loop
    vertex 3.090169943749472 -7.568733460868295e-16 -9.510565162951536
    vertex 1.396663028395337 -2.630486925467601 -9.546196673024163
    vertex 6.123233995736766e-16 -1.499759782661858e-31 -10
  endloop
endfacet
facet normal 0.452269 -0.0870025 0.887628
  outer loop
    vertex 3.090169943749477 -7.568733460868307e-16 9.510565162951535
    vertex 4.278242477509452 -2.630486925030734 8.647379940818846
    vertex 5.877852522924734 -1.439658655611994e-15 8.090169943749473
  endloop
endfacet
facet normal 0.888335 -0.0773787 -0.452629
  outer loop
    vertex 9.510565162951544 -2.329416636978187e-15 -3.090169943749451
    vertex 8.687606039729509 -2.492857390725898 -4.27915451087696
    vertex 8.090169943749483 -1.981520145234185e-15 -5.877852522924719
  endloop
endfacet
facet normal -0.254573 0.274709 -0.927215
  outer loop
    vertex -4.091144853539113 3.48705920734143 -8.432256629862245
    vertex -1.177762576985288 4.060798455287114 -9.062162612632305
    vertex -2.309293155703117 0.8998233666684717 -9.688007175359655
  endloop
endfacet
facet normal 0.984093 0.177603 -0.00434873
  outer loop
    vertex 10 -2.449293598294707e-15 2.419605899270905e-14
    vertex 9.510232634652215 2.675891227823645 -1.5476050438185
    vertex 9.517977425774882 2.70622338527515 1.443766155383097
  endloop
endfacet
facet normal 0.933669 0.358085 -0.00604825
  outer loop
    vertex 9.517977425774882 2.70622338527515 1.443766155383097
    vertex 9.510232634652215 2.675891227823645 -1.5476050438185
    vertex 8.572514001024185 5.142758975403156 -0.2530490528625062
  endloop
endfacet
facet normal 0.73785 0.589232 -0.329215
  outer loop
    vertex 6.887534475184018 6.915780945949735 -2.175739589378792
    vertex 8.354726456839098 4.837466440536165 -2.607194712344894
    vertex 6.64779697718919 5.803451221336664 -4.703907872358924
  endloop
endfacet
facet normal 0.887742 0.0855186 0.452327
  outer loop
    vertex 9.510565162951531 -2.329416636978184e-15 3.090169943749489
    vertex 8.521028438990575 2.604100028135897 4.53990499739548
    vertex 8.090169943749469 -1.981520145234182e-15 5.877852522924735
  endloop
endfacet
facet normal 0.510616 0.651815 -0.560721
  outer loop
    vertex 4.797253184958235 5.255403254503368 -7.026172394124947
    vertex 3.366652944219244 7.076482842766324 -6.212007608592712
    vertex 6.64779697718919 5.803451221336664 -4.703907872358924
  endloop
endfacet
facet normal -0.792003 0.317694 0.521346
  outer loop
    vertex -7.516949977940957 1.879488863921502 6.321628321843077
    vertex -6.961950017674789 4.617813168031558 5.496094385702667
    vertex -8.78764808397592 3.016464070710296 3.698403123282831
  endloop
endfacet
facet normal 0.784584 0.441497 -0.435324
  outer loop
    vertex 6.64779697718919 5.803451221336664 -4.703907872358924
    vertex 8.354726456839098 4.837466440536165 -2.607194712344894
    vertex 8.579604780797959 2.698172279020997 -4.37152698242061
  endloop
endfacet
facet normal 0.0271061 0.784974 0.618935
  outer loop
    vertex -0.4519537846544205 8.721970751480919 4.870622546127744
    vertex -0.1208699436825661 6.694241208005193 7.42782102004076
    vertex 1.98925527167267 7.584925713401851 6.205784832420305
  endloop
endfacet
facet normal -0.853784 -0.101934 -0.510551
  outer loop
    vertex -9.295689795525668 -0.3452227562579247 -3.670282342534655
    vertex -7.926583683361859 0.3025922737244868 -6.089146822547785
    vertex -7.971027130287282 -2.651925370664808 -5.424944084195561
  endloop
endfacet
facet normal -0.40079 -0.376824 0.835087
  outer loop
    vertex -3.831224548921641 -5.234630769454176 7.610542632639524
    vertex -2.448637030558391 -4.095536270284424 8.788103285201133
    vertex -4.942682503566604 -2.405965138019428 8.353515512858747
  endloop
endfacet
facet normal 0.559781 -0.346435 -0.752747
  outer loop
    vertex 4.371526982924663 -2.698172279354425 -8.579604780436272
    vertex 6.913228371989847 -2.516557788624356 -6.773050300509268
    vertex 5.334972857969081 -5.064666913900928 -6.774010160604313
  endloop
endfacet
facet normal -0.794772 0.454121 0.402631
  outer loop
    vertex -8.78764808397592 3.016464070710296 3.698403123282831
    vertex -6.961950017674789 4.617813168031558 5.496094385702667
    vertex -7.652544975674124 5.792635038433847 2.807834522687051
  endloop
endfacet
facet normal -0.147646 0.924415 0.35165
  outer loop
    vertex -3.203214232407539 8.856889559470382 3.36079245307507
    vertex -0.4519537846544205 8.721970751480919 4.870622546127744
    vertex -0.6180437338628563 9.767680034734267 2.051937787089668
  endloop
endfacet
facet normal 0.339153 0.192608 0.920802
  outer loop
    vertex 4.845904470372625 2.867344801849976 8.264111788409359
    vertex 1.59269840977238 2.681307598933273 9.501257881744461
    vertex 3.090169943749477 -7.568733460868307e-16 9.510565162951535
  endloop
endfacet
facet normal -0.142194 0.95585 -0.25716
  outer loop
    vertex -0.584824109196725 9.925991668531175 -1.064269776678801
    vertex -0.5695862979316769 9.124330494456212 -4.05242698603503
    vertex -3.124034505089659 9.112974234113146 -2.682183628948453
  endloop
endfacet
facet normal 0.119298 0.907157 -0.403526
  outer loop
    vertex 1.79982434663307 8.195424200575264 -5.440188828881967
    vertex -0.5695862979316769 9.124330494456212 -4.05242698603503
    vertex 2.126768084680263 9.424057887695097 -2.581470597035197
  endloop
endfacet
facet normal 0.0394695 -0.951452 -0.305257
  outer loop
    vertex -1.038972844099973 -9.069405639150697 -4.082452299998661
    vertex 2.035935337485914 -9.064778736701671 -3.699290980203824
    vertex 0.2836282610584146 -9.913702868289167 -1.279863449280485
  endloop
endfacet
facet normal 0.983686 0.0899362 -0.155801
  outer loop
    vertex 9.510565162951544 -2.329416636978187e-15 -3.090169943749451
    vertex 9.510232634652215 2.675891227823645 -1.5476050438185
    vertex 10 -2.449293598294707e-15 2.419605899270905e-14
  endloop
endfacet
facet normal 0.888132 -0.0802625 0.452526
  outer loop
    vertex 8.090169943749469 -1.981520145234182e-15 5.877852522924735
    vertex 8.730778441156382 -2.521110077209236 4.173429260216707
    vertex 9.510565162951531 -2.329416636978184e-15 3.090169943749489
  endloop
endfacet
facet normal 0.376789 -0.601001 -0.70486
  outer loop
    vertex 5.334972857969081 -5.064666913900928 -6.774010160604313
    vertex 3.626744331877764 -7.328077742698366 -5.757256477538703
    vertex 2.533321381359539 -5.194986426219431 -8.160539124968549
  endloop
endfacet
facet normal -0.856393 0.514948 -0.0376792
  outer loop
    vertex -7.58109193202469 6.520734120688007 -0.08409307632219309
    vertex -8.568720472639383 4.735253831844622 -2.03823467975882
    vertex -9.14680580145663 3.976096306919501 0.7256733345937765
  endloop
endfacet
facet normal -0.0762794 -0.72201 0.687665
  outer loop
    vertex -2.236008713871744 -7.524208967834982 6.19568756796542
    vertex 0.2961384090154949 -8.052706473703244 5.921673791343427
    vertex -0.6114653013787485 -5.998746846047318 7.977540126019244
  endloop
endfacet
facet normal 0.381693 0.922512 0.0572887
  outer loop
    vertex 2.124235263940154 9.757568407207069 0.5267668574498655
    vertex 4.438603559347012 8.699175419290938 2.150150103447752
    vertex 4.707514830058204 8.777066357883852 -0.8957735618366951
  endloop
endfacet
facet normal -0.992082 -0.0694584 0.104636
  outer loop
    vertex -9.908261469751396 -1.170120917004095 -0.6761447231395072
    vertex -9.542551643944819 -1.911502775812548 2.299100967923537
    vertex -9.830197120800591 1.025673052764278 1.52158448830059
  endloop
endfacet
facet normal -0.0131517 0.29778 0.954544
  outer loop
    vertex -1.580911629912236 2.004733621182065 9.668596667899147
    vertex 1.59269840977238 2.681307598933273 9.501257881744461
    vertex -0.8646656001063765 4.438348512142671 8.919272161154947
  endloop
endfacet
facet normal 0.285938 -0.922784 0.258282
  outer loop
    vertex 4.437295718252738 -8.747553544958658 1.946975522921933
    vertex 2.34558266565918 -8.762583104137574 4.208964160175505
    vertex 1.498452020117303 -9.758818957578757 1.587480424007759
  endloop
endfacet
facet normal 0.57847 -0.178571 -0.795917
  outer loop
    vertex 5.877852522924737 -1.439658655611995e-15 -8.090169943749469
    vertex 6.913228371989847 -2.516557788624356 -6.773050300509268
    vertex 4.371526982924663 -2.698172279354425 -8.579604780436272
  endloop
endfacet
facet normal -0.364524 -0.773822 0.517997
  outer loop
    vertex -5.125642886748046 -6.806128021450989 5.234921809649959
    vertex -3.382379561788087 -8.649010056220447 3.708656569082096
    vertex -2.236008713871744 -7.524208967834982 6.19568756796542
  endloop
endfacet
facet normal 0.296652 -0.174137 0.938975
  outer loop
    vertex 1.506325540503648 -2.698172279019946 9.510565162951922
    vertex 4.278242477509452 -2.630486925030734 8.647379940818846
    vertex 3.090169943749477 -7.568733460868307e-16 9.510565162951535
  endloop
endfacet
facet normal 0.191237 -0.961209 -0.198761
  outer loop
    vertex 0.2836282610584146 -9.913702868289167 -1.279863449280485
    vertex 2.035935337485914 -9.064778736701671 -3.699290980203824
    vertex 3.339916290517204 -9.38138320363618 -0.9135690224995459
  endloop
endfacet
facet normal -0.220535 0.887882 -0.40377
  outer loop
    vertex -3.124034505089659 9.112974234113146 -2.682183628948453
    vertex -0.5695862979316769 9.124330494456212 -4.05242698603503
    vertex -2.822158683366983 7.999450814114106 -5.295678147174873
  endloop
endfacet
facet normal 0.228029 -0.674371 -0.702301
  outer loop
    vertex 2.533321381359539 -5.194986426219431 -8.160539124968549
    vertex 3.626744331877764 -7.328077742698366 -5.757256477538703
    vertex 0.641359216176424 -7.609413545927535 -6.456429651353765
  endloop
endfacet
facet normal 0.935178 0.176973 -0.306793
  outer loop
    vertex 8.579604780797959 2.698172279020997 -4.37152698242061
    vertex 9.510232634652215 2.675891227823645 -1.5476050438185
    vertex 9.510565162951544 -2.329416636978187e-15 -3.090169943749451
  endloop
endfacet
facet normal -0.931032 0.351479 -0.0981901
  outer loop
    vertex -9.14680580145663 3.976096306919501 0.7256733345937765
    vertex -8.568720472639383 4.735253831844622 -2.03823467975882
    vertex -9.711490048949516 1.860993251306056 -1.491195878396884
  endloop
endfacet
facet normal 0.284707 0.936508 0.204682
  outer loop
    vertex 2.019408067413384 9.129623324002537 3.545697254292107
    vertex 4.438603559347012 8.699175419290938 2.150150103447752
    vertex 2.124235263940154 9.757568407207069 0.5267668574498655
  endloop
endfacet
facet normal -0.969301 -0.238516 0.05971
  outer loop
    vertex -9.143006477800007 -4.040672084514985 0.2800029505709525
    vertex -9.542551643944819 -1.911502775812548 2.299100967923537
    vertex -9.908261469751396 -1.170120917004095 -0.6761447231395072
  endloop
endfacet
facet normal -0.961936 -0.0221019 0.272379
  outer loop
    vertex -9.830197120800591 1.025673052764278 1.52158448830059
    vertex -9.542551643944819 -1.911502775812548 2.299100967923537
    vertex -9.005860401599664 -0.03654910705395303 4.346624275190197
  endloop
endfacet
facet normal 0.538377 0.839874 0.0690083
  outer loop
    vertex 4.707514830058204 8.777066357883852 -0.8957735618366951
    vertex 4.438603559347012 8.699175419290938 2.150150103447752
    vertex 6.756310327397227 7.314144871385813 0.9249624642579851
  endloop
endfacet
facet normal 0.110888 -0.940382 0.321537
  outer loop
    vertex 1.498452020117303 -9.758818957578757 1.587480424007759
    vertex 2.34558266565918 -8.762583104137574 4.208964160175505
    vertex -0.3849110705361233 -9.152230318584493 4.011050194570188
  endloop
endfacet
facet normal 0.400736 -0.840354 0.364986
  outer loop
    vertex 4.985917602411501 -7.304111183322659 4.668038719165045
    vertex 2.34558266565918 -8.762583104137574 4.208964160175505
    vertex 4.437295718252738 -8.747553544958658 1.946975522921933
  endloop
endfacet
facet normal -0.209553 0.724643 -0.65649
  outer loop
    vertex -2.822158683366983 7.999450814114106 -5.295678147174873
    vertex -0.7104847875782532 7.950132874139586 -6.024167880308858
    vertex -1.970402960362738 6.065074936643203 -7.702751338755276
  endloop
endfacet
facet normal 0.800142 -0.182885 0.57125
  outer loop
    vertex 6.808812905081736 -2.698172279030527 6.808812905071164
    vertex 8.730778441156382 -2.521110077209236 4.173429260216707
    vertex 8.090169943749469 -1.981520145234182e-15 5.877852522924735
  endloop
endfacet
facet normal 0.715666 -0.68602 -0.131142
  outer loop
    vertex 7.036839712405832 -6.470208440809763 -2.935862666131082
    vertex 8.172393547286589 -5.731115750546849 -0.6052238941931547
    vertex 6.084695276380654 -7.914976098633434 -0.5741400104960827
  endloop
endfacet
facet normal -0.488206 0.871915 0.0376621
  outer loop
    vertex -3.27274822168665 9.439893745691611 0.4213373321927278
    vertex -5.533632288230268 8.243660398414859 -1.192047370812931
    vertex -5.713735879507781 8.015142808422661 1.763719949372902
  endloop
endfacet
facet normal 0.60917 0.172279 0.774101
  outer loop
    vertex 5.877852522924734 -1.439658655611994e-15 8.090169943749473
    vertex 7.25875172668705 2.226187936964098 6.508041997377806
    vertex 4.845904470372625 2.867344801849976 8.264111788409359
  endloop
endfacet
facet normal 0.722454 -0.690016 0.0440147
  outer loop
    vertex 6.084695276380654 -7.914976098633434 -0.5741400104960827
    vertex 8.172393547286589 -5.731115750546849 -0.6052238941931547
    vertex 6.917118240406971 -6.863513068501577 2.246255463373935
  endloop
endfacet
facet normal -0.637128 0.770479 0.0207455
  outer loop
    vertex -5.713735879507781 8.015142808422661 1.763719949372902
    vertex -5.533632288230268 8.243660398414859 -1.192047370812931
    vertex -7.58109193202469 6.520734120688007 -0.08409307632219309
  endloop
endfacet
facet normal -0.399247 0.909609 -0.114948
  outer loop
    vertex -3.124034505089659 9.112974234113146 -2.682183628948453
    vertex -5.533632288230268 8.243660398414859 -1.192047370812931
    vertex -3.27274822168665 9.439893745691611 0.4213373321927278
  endloop
endfacet
facet normal 0.800683 -0.587084 0.11933
  outer loop
    vertex 6.917118240406971 -6.863513068501577 2.246255463373935
    vertex 8.172393547286589 -5.731115750546849 -0.6052238941931547
    vertex 8.75989048912237 -4.409601099368824 1.954414685533417
  endloop
endfacet
facet normal 0.770032 -0.341993 0.538601
  outer loop
    vertex 7.167144960388376 -5.064666913626114 4.793869227544741
    vertex 8.730778441156382 -2.521110077209236 4.173429260216707
    vertex 6.808812905081736 -2.698172279030527 6.808812905071164
  endloop
endfacet
facet normal 0.704901 -0.078918 -0.704901
  outer loop
    vertex 8.090169943749483 -1.981520145234185e-15 -5.877852522924719
    vertex 6.913228371989847 -2.516557788624356 -6.773050300509268
    vertex 5.877852522924737 -1.439658655611995e-15 -8.090169943749469
  endloop
endfacet
facet normal 0.829402 -0.420021 0.36834
  outer loop
    vertex 8.75989048912237 -4.409601099368824 1.954414685533417
    vertex 8.730778441156382 -2.521110077209236 4.173429260216707
    vertex 7.167144960388376 -5.064666913626114 4.793869227544741
  endloop
endfacet
facet normal 0.408562 -0.422546 0.809032
  outer loop
    vertex 4.278242477509452 -2.630486925030734 8.647379940818846
    vertex 2.603925850690623 -5.047865496279098 8.230347750586247
    vertex 4.931077080191998 -5.19498642595689 6.978294552634534
  endloop
endfacet
facet normal -0.829717 -0.370217 -0.417742
  outer loop
    vertex -7.971027130287282 -2.651925370664808 -5.424944084195561
    vertex -7.546269284400476 -5.178619309235313 -4.029357509247482
    vertex -9.023940214313845 -3.336469366507655 -2.726990131050239
  endloop
endfacet
facet normal -0.709473 0.163117 -0.685595
  outer loop
    vertex -6.742420071794005 3.320457799384027 -6.596539363786068
    vertex -5.934975178208616 0.9841718103946093 -7.987958154727165
    vertex -7.926583683361859 0.3025922737244868 -6.089146822547785
  endloop
endfacet
facet normal -0.00453821 -0.172343 -0.985027
  outer loop
    vertex 1.396663028395337 -2.630486925467601 -9.546196673024163
    vertex -1.698273768276606 -2.176810112045536 -9.611314371306346
    vertex 6.123233995736766e-16 -1.499759782661858e-31 -10
  endloop
endfacet
facet normal 0.350047 -0.598134 0.720904
  outer loop
    vertex 4.931077080191998 -5.19498642595689 6.978294552634534
    vertex 2.603925850690623 -5.047865496279098 8.230347750586247
    vertex 2.501075653655083 -7.120882946485642 6.560308425458652
  endloop
endfacet
facet normal 0.340651 -0.781311 0.522982
  outer loop
    vertex 2.501075653655083 -7.120882946485642 6.560308425458652
    vertex 2.34558266565918 -8.762583104137574 4.208964160175505
    vertex 4.985917602411501 -7.304111183322659 4.668038719165045
  endloop
endfacet
facet normal -0.0827024 0.221961 -0.971542
  outer loop
    vertex -1.177762576985288 4.060798455287114 -9.062162612632305
    vertex 0.973233068023827 1.395280265608917 -9.854238193574744
    vertex -2.309293155703117 0.8998233666684717 -9.688007175359655
  endloop
endfacet
facet normal -0.9163 -0.352399 0.19029
  outer loop
    vertex -8.414110450215833 -4.372089449532242 3.176094957153762
    vertex -9.542551643944819 -1.911502775812548 2.299100967923537
    vertex -9.143006477800007 -4.040672084514985 0.2800029505709525
  endloop
endfacet
facet normal 0.588394 0.772037 0.240314
  outer loop
    vertex 6.756310327397227 7.314144871385813 0.9249624642579851
    vertex 4.438603559347012 8.699175419290938 2.150150103447752
    vertex 6.023670495741631 6.924392560993946 3.970916949519782
  endloop
endfacet
facet normal -0.835616 -0.473926 -0.277742
  outer loop
    vertex -9.023940214313845 -3.336469366507655 -2.726990131050239
    vertex -7.546269284400476 -5.178619309235313 -4.029357509247482
    vertex -7.799547815792613 -5.941894343250469 -1.964928874746549
  endloop
endfacet
facet normal -0.559173 0.27297 -0.782824
  outer loop
    vertex -4.091144853539113 3.48705920734143 -8.432256629862245
    vertex -5.934975178208616 0.9841718103946093 -7.987958154727165
    vertex -6.742420071794005 3.320457799384027 -6.596539363786068
  endloop
endfacet
facet normal -0.912331 0.312342 -0.264755
  outer loop
    vertex -9.711490048949516 1.860993251306056 -1.491195878396884
    vertex -8.568720472639383 4.735253831844622 -2.03823467975882
    vertex -8.62384553782239 2.640780647917516 -4.319208921708371
  endloop
endfacet
facet normal 0.143924 0.66478 0.733044
  outer loop
    vertex 1.98925527167267 7.584925713401851 6.205784832420305
    vertex -0.1208699436825661 6.694241208005193 7.42782102004076
    vertex 1.687575237266783 5.402940242907217 8.243805344022727
  endloop
endfacet
facet normal -0.680454 0.591091 0.433122
  outer loop
    vertex -7.652544975674124 5.792635038433847 2.807834522687051
    vertex -6.961950017674789 4.617813168031558 5.496094385702667
    vertex -5.455068943783577 6.975797116864567 4.645479243620827
  endloop
endfacet
facet normal 0.34406 -0.901222 -0.263479
  outer loop
    vertex 3.339916290517204 -9.38138320363618 -0.9135690224995459
    vertex 2.035935337485914 -9.064778736701671 -3.699290980203824
    vertex 4.749887840243403 -8.115272368972862 -3.403075062718051
  endloop
endfacet
facet normal 0.986046 -0.16625 -0.00866893
  outer loop
    vertex 10 -2.449293598294707e-15 2.419605899270905e-14
    vertex 9.67106041278068 -2.030848651103656 1.531745490823077
    vertex 9.51682756865293 -2.799998253004253 -1.2609531362032
  endloop
endfacet
facet normal 0.939015 -0.159551 0.304623
  outer loop
    vertex 8.730778441156382 -2.521110077209236 4.173429260216707
    vertex 9.67106041278068 -2.030848651103656 1.531745490823077
    vertex 9.510565162951531 -2.329416636978184e-15 3.090169943749489
  endloop
endfacet
facet normal -0.828573 0.422229 -0.367681
  outer loop
    vertex -8.62384553782239 2.640780647917516 -4.319208921708371
    vertex -8.568720472639383 4.735253831844622 -2.03823467975882
    vertex -7.194210136759508 5.346298465244656 -4.434008708682178
  endloop
endfacet
facet normal 0.803305 -0.172963 -0.569899
  outer loop
    vertex 8.687606039729509 -2.492857390725898 -4.27915451087696
    vertex 6.913228371989847 -2.516557788624356 -6.773050300509268
    vertex 8.090169943749483 -1.981520145234185e-15 -5.877852522924719
  endloop
endfacet
facet normal -0.0731376 0.153954 -0.985367
  outer loop
    vertex -2.309293155703117 0.8998233666684717 -9.688007175359655
    vertex 0.973233068023827 1.395280265608917 -9.854238193574744
    vertex 6.123233995736766e-16 -1.499759782661858e-31 -10
  endloop
endfacet
facet normal -0.438403 0.71614 -0.543089
  outer loop
    vertex -4.862102253230535 5.830886552027073 -6.508511634507569
    vertex -5.302344459056538 7.50337932215949 -3.947713513579955
    vertex -2.822158683366983 7.999450814114106 -5.295678147174873
  endloop
endfacet
facet normal 0.126237 0.85723 0.49922
  outer loop
    vertex -0.4519537846544205 8.721970751480919 4.870622546127744
    vertex 1.98925527167267 7.584925713401851 6.205784832420305
    vertex 2.019408067413384 9.129623324002537 3.545697254292107
  endloop
endfacet
facet normal 0.0308533 0.937704 0.346063
  outer loop
    vertex -0.6180437338628563 9.767680034734267 2.051937787089668
    vertex -0.4519537846544205 8.721970751480919 4.870622546127744
    vertex 2.019408067413384 9.129623324002537 3.545697254292107
  endloop
endfacet
facet normal -0.633129 0.194401 0.749237
  outer loop
    vertex -5.601805741629402 0.654594381637953 8.25780107707711
    vertex -5.277945696172513 3.178264685427728 7.876669525733387
    vertex -7.516949977940957 1.879488863921502 6.321628321843077
  endloop
endfacet
facet normal 0.914345 -0.302379 0.269335
  outer loop
    vertex 8.75989048912237 -4.409601099368824 1.954414685533417
    vertex 9.67106041278068 -2.030848651103656 1.531745490823077
    vertex 8.730778441156382 -2.521110077209236 4.173429260216707
  endloop
endfacet
facet normal -0.574154 0.576603 0.581271
  outer loop
    vertex -5.455068943783577 6.975797116864567 4.645479243620827
    vertex -6.961950017674789 4.617813168031558 5.496094385702667
    vertex -4.759375400070312 5.205235712210384 7.088996189978889
  endloop
endfacet
facet normal -0.223271 -0.556392 0.800361
  outer loop
    vertex -0.6114653013787485 -5.998746846047318 7.977540126019244
    vertex -2.448637030558391 -4.095536270284424 8.788103285201133
    vertex -3.831224548921641 -5.234630769454176 7.610542632639524
  endloop
endfacet
facet normal -0.118684 -0.841725 0.5267
  outer loop
    vertex -0.3849110705361233 -9.152230318584493 4.011050194570188
    vertex 0.2961384090154949 -8.052706473703244 5.921673791343427
    vertex -2.236008713871744 -7.524208967834982 6.19568756796542
  endloop
endfacet
facet normal 0.705667 0.0637864 0.705667
  outer loop
    vertex 8.090169943749469 -1.981520145234182e-15 5.877852522924735
    vertex 7.25875172668705 2.226187936964098 6.508041997377806
    vertex 5.877852522924734 -1.439658655611994e-15 8.090169943749473
  endloop
endfacet
facet normal -0.602891 0.418254 0.679402
  outer loop
    vertex -6.961950017674789 4.617813168031558 5.496094385702667
    vertex -5.277945696172513 3.178264685427728 7.876669525733387
    vertex -4.759375400070312 5.205235712210384 7.088996189978889
  endloop
endfacet
facet normal -0.66913 -0.699454 -0.251059
  outer loop
    vertex -7.799547815792613 -5.941894343250469 -1.964928874746549
    vertex -6.030494862308823 -6.907250660510797 -3.990365901585973
    vertex -5.621184118668891 -8.049831511695198 -1.898025747281542
  endloop
endfacet
facet normal -0.773941 -0.575862 0.263436
  outer loop
    vertex -7.431824132671255 -6.572887530026986 1.251055385928572
    vertex -6.931789580430937 -5.969290085181797 4.039538227518015
    vertex -8.414110450215833 -4.372089449532242 3.176094957153762
  endloop
endfacet
facet normal 0.761052 0.338831 0.553166
  outer loop
    vertex 8.521028438990575 2.604100028135897 4.53990499739548
    vertex 6.725255598835352 4.650476291916219 5.757083236210756
    vertex 7.25875172668705 2.226187936964098 6.508041997377806
  endloop
endfacet
facet normal 0.275685 0.18598 -0.943085
  outer loop
    vertex 3.090169943749472 -7.568733460868295e-16 -9.510565162951536
    vertex 0.973233068023827 1.395280265608917 -9.854238193574744
    vertex 3.889117958964871 3.160003623209328 -8.653851085069631
  endloop
endfacet
facet normal -0.585296 0.769406 -0.255818
  outer loop
    vertex -5.302344459056538 7.50337932215949 -3.947713513579955
    vertex -6.997912147982101 6.726710487813996 -2.404286085776346
    vertex -5.533632288230268 8.243660398414859 -1.192047370812931
  endloop
endfacet
facet normal -0.120601 0.703911 -0.699975
  outer loop
    vertex -1.970402960362738 6.065074936643203 -7.702751338755276
    vertex -0.7104847875782532 7.950132874139586 -6.024167880308858
    vertex 0.1224928306508963 6.722426849790237 -7.402295100552154
  endloop
endfacet
facet normal -0.451026 -0.855946 0.25285
  outer loop
    vertex -3.382379561788087 -8.649010056220447 3.708656569082096
    vertex -5.732990379389007 -7.605921658214212 3.046765012097429
    vertex -4.67359911315986 -8.792817890966591 0.918599404402807
  endloop
endfacet
facet normal 0.0147385 0.174382 0.984568
  outer loop
    vertex 6.123233995736766e-16 -1.499759782661858e-31 10
    vertex 1.59269840977238 2.681307598933273 9.501257881744461
    vertex -1.580911629912236 2.004733621182065 9.668596667899147
  endloop
endfacet
facet normal -0.24956 0.424464 0.870374
  outer loop
    vertex -0.8646656001063765 4.438348512142671 8.919272161154947
    vertex -2.474091427709974 5.668670877351584 7.857801352261207
    vertex -3.366815949052337 2.8613354662071 8.970914653201881
  endloop
endfacet
facet normal -0.915029 -0.147913 0.375292
  outer loop
    vertex -9.542551643944819 -1.911502775812548 2.299100967923537
    vertex -8.436641033388526 -2.394513637789688 4.805142298848618
    vertex -9.005860401599664 -0.03654910705395303 4.346624275190197
  endloop
endfacet
facet normal 0.819088 0.149093 0.553955
  outer loop
    vertex 8.521028438990575 2.604100028135897 4.53990499739548
    vertex 7.25875172668705 2.226187936964098 6.508041997377806
    vertex 8.090169943749469 -1.981520145234182e-15 5.877852522924735
  endloop
endfacet
facet normal 0.0908966 -0.876803 0.472181
  outer loop
    vertex 2.34558266565918 -8.762583104137574 4.208964160175505
    vertex 0.2961384090154949 -8.052706473703244 5.921673791343427
    vertex -0.3849110705361233 -9.152230318584493 4.011050194570188
  endloop
endfacet
facet normal 0.89994 0.413952 -0.136938
  outer loop
    vertex 9.510232634652215 2.675891227823645 -1.5476050438185
    vertex 8.354726456839098 4.837466440536165 -2.607194712344894
    vertex 8.572514001024185 5.142758975403156 -0.2530490528625062
  endloop
endfacet
facet normal -0.585606 0.628901 -0.511419
  outer loop
    vertex -7.194210136759508 5.346298465244656 -4.434008708682178
    vertex -5.302344459056538 7.50337932215949 -3.947713513579955
    vertex -4.862102253230535 5.830886552027073 -6.508511634507569
  endloop
endfacet
facet normal 0.796467 -0.567779 -0.208007
  outer loop
    vertex 7.036839712405832 -6.470208440809763 -2.935862666131082
    vertex 8.439732530850376 -4.519535317202076 -2.888722091906565
    vertex 8.172393547286589 -5.731115750546849 -0.6052238941931547
  endloop
endfacet
facet normal -0.895044 -0.289589 0.339166
  outer loop
    vertex -8.414110450215833 -4.372089449532242 3.176094957153762
    vertex -8.436641033388526 -2.394513637789688 4.805142298848618
    vertex -9.542551643944819 -1.911502775812548 2.299100967923537
  endloop
endfacet
facet normal -0.743905 -0.276107 0.60858
  outer loop
    vertex -7.320677172245138 -1.219755620370129 6.702229626500752
    vertex -8.436641033388526 -2.394513637789688 4.805142298848618
    vertex -6.788180220589733 -4.287658230007782 5.961257937335112
  endloop
endfacet
facet normal 0.468371 -0.746264 -0.472989
  outer loop
    vertex 3.626744331877764 -7.328077742698366 -5.757256477538703
    vertex 5.77200430658068 -6.486420687961815 -4.960878243173789
    vertex 4.749887840243403 -8.115272368972862 -3.403075062718051
  endloop
endfacet
facet normal 0.792769 0.590788 -0.149956
  outer loop
    vertex 8.572514001024185 5.142758975403156 -0.2530490528625062
    vertex 8.354726456839098 4.837466440536165 -2.607194712344894
    vertex 6.887534475184018 6.915780945949735 -2.175739589378792
  endloop
endfacet
facet normal -0.154827 -0.0553368 -0.986391
  outer loop
    vertex -1.698273768276606 -2.176810112045536 -9.611314371306346
    vertex -2.309293155703117 0.8998233666684717 -9.688007175359655
    vertex 6.123233995736766e-16 -1.499759782661858e-31 -10
  endloop
endfacet
facet normal -0.708899 -0.628814 -0.319462
  outer loop
    vertex -7.546269284400476 -5.178619309235313 -4.029357509247482
    vertex -6.030494862308823 -6.907250660510797 -3.990365901585973
    vertex -7.799547815792613 -5.941894343250469 -1.964928874746549
  endloop
endfacet
facet normal -0.789623 0.596079 -0.145554
  outer loop
    vertex -7.58109193202469 6.520734120688007 -0.08409307632219309
    vertex -6.997912147982101 6.726710487813996 -2.404286085776346
    vertex -8.568720472639383 4.735253831844622 -2.03823467975882
  endloop
endfacet
facet normal 0.286124 -0.351923 0.891225
  outer loop
    vertex 1.506325540503648 -2.698172279019946 9.510565162951922
    vertex 2.603925850690623 -5.047865496279098 8.230347750586247
    vertex 4.278242477509452 -2.630486925030734 8.647379940818846
  endloop
endfacet
facet normal 0.89554 0.335354 -0.292481
  outer loop
    vertex 8.579604780797959 2.698172279020997 -4.37152698242061
    vertex 8.354726456839098 4.837466440536165 -2.607194712344894
    vertex 9.510232634652215 2.675891227823645 -1.5476050438185
  endloop
endfacet
facet normal 0.271778 0.4203 -0.865728
  outer loop
    vertex 3.889117958964871 3.160003623209328 -8.653851085069631
    vertex 1.545160746974046 3.372872127314292 -9.286345453341534
    vertex 1.375563183746627 5.006767508366505 -8.546350393278191
  endloop
endfacet
facet normal 0.986819 -0.0419514 0.156297
  outer loop
    vertex 9.510565162951531 -2.329416636978184e-15 3.090169943749489
    vertex 9.67106041278068 -2.030848651103656 1.531745490823077
    vertex 10 -2.449293598294707e-15 2.419605899270905e-14
  endloop
endfacet
facet normal 0.0826457 0.415609 0.905781
  outer loop
    vertex 1.59269840977238 2.681307598933273 9.501257881744461
    vertex 1.687575237266783 5.402940242907217 8.243805344022727
    vertex -0.8646656001063765 4.438348512142671 8.919272161154947
  endloop
endfacet
facet normal -0.463868 0.1902 0.865246
  outer loop
    vertex -3.366815949052337 2.8613354662071 8.970914653201881
    vertex -5.277945696172513 3.178264685427728 7.876669525733387
    vertex -5.601805741629402 0.654594381637953 8.25780107707711
  endloop
endfacet
facet normal 0.0415104 -0.155846 0.986909
  outer loop
    vertex 6.123233995736766e-16 -1.499759782661858e-31 10
    vertex -1.083094339892462 -2.147683890951572 9.706408221141331
    vertex 1.506325540503648 -2.698172279019946 9.510565162951922
  endloop
endfacet
facet normal -0.774574 0.555313 -0.302758
  outer loop
    vertex -8.568720472639383 4.735253831844622 -2.03823467975882
    vertex -6.997912147982101 6.726710487813996 -2.404286085776346
    vertex -7.194210136759508 5.346298465244656 -4.434008708682178
  endloop
endfacet
facet normal 0.182399 -0.811792 0.554729
  outer loop
    vertex 2.501075653655083 -7.120882946485642 6.560308425458652
    vertex 0.2961384090154949 -8.052706473703244 5.921673791343427
    vertex 2.34558266565918 -8.762583104137574 4.208964160175505
  endloop
endfacet
facet normal -0.359824 0.624718 0.693004
  outer loop
    vertex -4.759375400070312 5.205235712210384 7.088996189978889
    vertex -2.474091427709974 5.668670877351584 7.857801352261207
    vertex -2.735219616353367 7.342759134080371 6.213087956016317
  endloop
endfacet
facet normal -0.621028 -0.566256 0.541921
  outer loop
    vertex -6.788180220589733 -4.287658230007782 5.961257937335112
    vertex -6.931789580430937 -5.969290085181797 4.039538227518015
    vertex -5.125642886748046 -6.806128021450989 5.234921809649959
  endloop
endfacet
facet normal -0.463392 -0.278179 -0.841359
  outer loop
    vertex -3.897716704793619 -4.325015144588605 -8.130316629028171
    vertex -6.083357127807862 -2.687053409825567 -7.468099492393902
    vertex -4.568626649045533 -1.099965180669645 -8.827101854116412
  endloop
endfacet
facet normal 0.591762 -0.719322 -0.363859
  outer loop
    vertex 4.749887840243403 -8.115272368972862 -3.403075062718051
    vertex 5.77200430658068 -6.486420687961815 -4.960878243173789
    vertex 7.036839712405832 -6.470208440809763 -2.935862666131082
  endloop
endfacet
facet normal 0.0299675 0.414956 -0.909348
  outer loop
    vertex 1.375563183746627 5.006767508366505 -8.546350393278191
    vertex 1.545160746974046 3.372872127314292 -9.286345453341534
    vertex -1.177762576985288 4.060798455287114 -9.062162612632305
  endloop
endfacet
facet normal -0.464108 -0.782615 0.414872
  outer loop
    vertex -5.125642886748046 -6.806128021450989 5.234921809649959
    vertex -5.732990379389007 -7.605921658214212 3.046765012097429
    vertex -3.382379561788087 -8.649010056220447 3.708656569082096
  endloop
endfacet
facet normal -0.490794 -0.704347 -0.512852
  outer loop
    vertex -3.892002930783111 -8.073557889855627 -4.435084687570875
    vertex -6.030494862308823 -6.907250660510797 -3.990365901585973
    vertex -5.414983191087297 -5.834246892854694 -6.053058750206986
  endloop
endfacet
facet normal -0.831485 -0.0942603 0.547492
  outer loop
    vertex -9.005860401599664 -0.03654910705395303 4.346624275190197
    vertex -8.436641033388526 -2.394513637789688 4.805142298848618
    vertex -7.320677172245138 -1.219755620370129 6.702229626500752
  endloop
endfacet
facet normal -0.309522 0.122692 0.942944
  outer loop
    vertex -2.82061413764168 -0.463173357152689 9.582776545853491
    vertex -1.580911629912236 2.004733621182065 9.668596667899147
    vertex -3.366815949052337 2.8613354662071 8.970914653201881
  endloop
endfacet
facet normal 0.350713 0.873103 0.338662
  outer loop
    vertex 2.019408067413384 9.129623324002537 3.545697254292107
    vertex 3.801271463622803 7.966024328840871 4.700296974890236
    vertex 4.438603559347012 8.699175419290938 2.150150103447752
  endloop
endfacet
facet normal 0.475216 -0.633123 -0.611003
  outer loop
    vertex 5.334972857969081 -5.064666913900928 -6.774010160604313
    vertex 5.77200430658068 -6.486420687961815 -4.960878243173789
    vertex 3.626744331877764 -7.328077742698366 -5.757256477538703
  endloop
endfacet
facet normal 0.910236 -0.30413 -0.281027
  outer loop
    vertex 9.51682756865293 -2.799998253004253 -1.2609531362032
    vertex 8.439732530850376 -4.519535317202076 -2.888722091906565
    vertex 8.687606039729509 -2.492857390725898 -4.27915451087696
  endloop
endfacet
facet normal 0.655547 -0.405795 -0.636859
  outer loop
    vertex 6.913228371989847 -2.516557788624356 -6.773050300509268
    vertex 7.278990634207514 -4.657185606942252 -5.032585574991169
    vertex 5.334972857969081 -5.064666913900928 -6.774010160604313
  endloop
endfacet
facet normal -0.291748 -0.23284 0.927722
  outer loop
    vertex -2.448637030558391 -4.095536270284424 8.788103285201133
    vertex -1.083094339892462 -2.147683890951572 9.706408221141331
    vertex -2.82061413764168 -0.463173357152689 9.582776545853491
  endloop
endfacet
facet normal 0.489437 0.797959 0.351728
  outer loop
    vertex 4.438603559347012 8.699175419290938 2.150150103447752
    vertex 3.801271463622803 7.966024328840871 4.700296974890236
    vertex 6.023670495741631 6.924392560993946 3.970916949519782
  endloop
endfacet
facet normal -0.164628 0.678072 0.716321
  outer loop
    vertex -2.735219616353367 7.342759134080371 6.213087956016317
    vertex -2.474091427709974 5.668670877351584 7.857801352261207
    vertex -0.1208699436825661 6.694241208005193 7.42782102004076
  endloop
endfacet
facet normal -0.195786 0.340754 0.91954
  outer loop
    vertex -1.580911629912236 2.004733621182065 9.668596667899147
    vertex -0.8646656001063765 4.438348512142671 8.919272161154947
    vertex -3.366815949052337 2.8613354662071 8.970914653201881
  endloop
endfacet
facet normal 0.156432 -0.00593416 -0.987671
  outer loop
    vertex 6.123233995736766e-16 -1.499759782661858e-31 -10
    vertex 0.973233068023827 1.395280265608917 -9.854238193574744
    vertex 3.090169943749472 -7.568733460868295e-16 -9.510565162951536
  endloop
endfacet
facet normal 0.335166 0.805932 -0.487993
  outer loop
    vertex 4.538620186839631 8.094107705173371 -3.726438951152273
    vertex 3.366652944219244 7.076482842766324 -6.212007608592712
    vertex 1.79982434663307 8.195424200575264 -5.440188828881967
  endloop
endfacet
facet normal -0.691864 -0.670009 0.269097
  outer loop
    vertex -5.732990379389007 -7.605921658214212 3.046765012097429
    vertex -6.931789580430937 -5.969290085181797 4.039538227518015
    vertex -7.431824132671255 -6.572887530026986 1.251055385928572
  endloop
endfacet
facet normal 0.77513 -0.313534 -0.548516
  outer loop
    vertex 8.687606039729509 -2.492857390725898 -4.27915451087696
    vertex 7.278990634207514 -4.657185606942252 -5.032585574991169
    vertex 6.913228371989847 -2.516557788624356 -6.773050300509268
  endloop
endfacet
facet normal 0.271896 0.192147 -0.942949
  outer loop
    vertex 0.973233068023827 1.395280265608917 -9.854238193574744
    vertex 1.545160746974046 3.372872127314292 -9.286345453341534
    vertex 3.889117958964871 3.160003623209328 -8.653851085069631
  endloop
endfacet
facet normal 0.0141258 0.548202 0.836227
  outer loop
    vertex 1.687575237266783 5.402940242907217 8.243805344022727
    vertex -0.1208699436825661 6.694241208005193 7.42782102004076
    vertex -0.8646656001063765 4.438348512142671 8.919272161154947
  endloop
endfacet
facet normal 0.23085 0.840274 0.490559
  outer loop
    vertex 1.98925527167267 7.584925713401851 6.205784832420305
    vertex 3.801271463622803 7.966024328840871 4.700296974890236
    vertex 2.019408067413384 9.129623324002537 3.545697254292107
  endloop
endfacet
facet normal -0.672732 0.732532 -0.10406
  outer loop
    vertex -5.533632288230268 8.243660398414859 -1.192047370812931
    vertex -6.997912147982101 6.726710487813996 -2.404286085776346
    vertex -7.58109193202469 6.520734120688007 -0.08409307632219309
  endloop
endfacet
facet normal -0.151755 0.853968 -0.497705
  outer loop
    vertex -0.5695862979316769 9.124330494456212 -4.05242698603503
    vertex -0.7104847875782532 7.950132874139586 -6.024167880308858
    vertex -2.822158683366983 7.999450814114106 -5.295678147174873
  endloop
endfacet
facet normal 0.756759 -0.535178 -0.375367
  outer loop
    vertex 7.278990634207514 -4.657185606942252 -5.032585574991169
    vertex 8.439732530850376 -4.519535317202076 -2.888722091906565
    vertex 7.036839712405832 -6.470208440809763 -2.935862666131082
  endloop
endfacet
facet normal 0.689919 -0.585088 -0.426243
  outer loop
    vertex 5.77200430658068 -6.486420687961815 -4.960878243173789
    vertex 7.278990634207514 -4.657185606942252 -5.032585574991169
    vertex 7.036839712405832 -6.470208440809763 -2.935862666131082
  endloop
endfacet
facet normal -0.503868 -0.795761 -0.335979
  outer loop
    vertex -5.621184118668891 -8.049831511695198 -1.898025747281542
    vertex -6.030494862308823 -6.907250660510797 -3.990365901585973
    vertex -3.892002930783111 -8.073557889855627 -4.435084687570875
  endloop
endfacet
facet normal 0.0735874 0.766335 -0.638212
  outer loop
    vertex 0.1224928306508963 6.722426849790237 -7.402295100552154
    vertex -0.7104847875782532 7.950132874139586 -6.024167880308858
    vertex 1.79982434663307 8.195424200575264 -5.440188828881967
  endloop
endfacet
facet normal -0.00875524 0.278337 -0.960444
  outer loop
    vertex -1.177762576985288 4.060798455287114 -9.062162612632305
    vertex 1.545160746974046 3.372872127314292 -9.286345453341534
    vertex 0.973233068023827 1.395280265608917 -9.854238193574744
  endloop
endfacet
facet normal 0.0355976 0.857524 -0.513211
  outer loop
    vertex 1.79982434663307 8.195424200575264 -5.440188828881967
    vertex -0.7104847875782532 7.950132874139586 -6.024167880308858
    vertex -0.5695862979316769 9.124330494456212 -4.05242698603503
  endloop
endfacet
facet normal -0.10026 0.571515 0.814444
  outer loop
    vertex -0.1208699436825661 6.694241208005193 7.42782102004076
    vertex -2.474091427709974 5.668670877351584 7.857801352261207
    vertex -0.8646656001063765 4.438348512142671 8.919272161154947
  endloop
endfacet
facet normal -0.64974 0.656315 -0.383522
  outer loop
    vertex -7.194210136759508 5.346298465244656 -4.434008708682178
    vertex -6.997912147982101 6.726710487813996 -2.404286085776346
    vertex -5.302344459056538 7.50337932215949 -3.947713513579955
  endloop
endfacet
facet normal 0.820654 -0.388108 -0.419404
  outer loop
    vertex 8.687606039729509 -2.492857390725898 -4.27915451087696
    vertex 8.439732530850376 -4.519535317202076 -2.888722091906565
    vertex 7.278990634207514 -4.657185606942252 -5.032585574991169
  endloop
endfacet
facet normal -0.647888 -0.579267 -0.494663
  outer loop
    vertex -5.414983191087297 -5.834246892854694 -6.053058750206986
    vertex -6.030494862308823 -6.907250660510797 -3.990365901585973
    vertex -7.546269284400476 -5.178619309235313 -4.029357509247482
  endloop
endfacet
facet normal -0.594371 -0.687972 0.416435
  outer loop
    vertex -5.125642886748046 -6.806128021450989 5.234921809649959
    vertex -6.931789580430937 -5.969290085181797 4.039538227518015
    vertex -5.732990379389007 -7.605921658214212 3.046765012097429
  endloop
endfacet
facet normal 0.622979 -0.535581 -0.570132
  outer loop
    vertex 5.334972857969081 -5.064666913900928 -6.774010160604313
    vertex 7.278990634207514 -4.657185606942252 -5.032585574991169
    vertex 5.77200430658068 -6.486420687961815 -4.960878243173789
  endloop
endfacet
facet normal 0.29894 0.431742 0.851019
  outer loop
    vertex 4.845904470372625 2.867344801849976 8.264111788409359
    vertex 4.452393850284216 5.496726401795501 7.0683935845251
    vertex 1.59269840977238 2.681307598933273 9.501257881744461
  endloop
endfacet
facet normal 0.350429 0.382729 0.854821
  outer loop
    vertex 1.59269840977238 2.681307598933273 9.501257881744461
    vertex 4.452393850284216 5.496726401795501 7.0683935845251
    vertex 1.687575237266783 5.402940242907217 8.243805344022727
  endloop
endfacet
endsolid Created by Gmsh
